<svg xmlns="http://www.w3.org/2000/svg" width="1600" height="1600" viewBox="0 0 1600 1600"><g fill="#fff"><g><path d="m113.49219 307a.50005.50005 0 1 0 0 1h8.99414a.50005.50005 0 1 0 0-1zm0 2a.50005.50005 0 1 0 0 1h8.99414a.50005.50005 0 1 0 0-1z" transform="matrix(100 0 0 100 -11000 -30400)"/><path d="m111.5 305a.50004997.50004997 0 0 0 -.5.5v13a.50004997.50004997 0 0 0 .5.5h13a.50004997.50004997 0 0 0 .5-.5v-13a.50004997.50004997 0 0 0 -.5-.5zm.5 1h12v12h-12z" opacity=".6" transform="matrix(100 0 0 100 -11000 -30400)"/></g></g></svg>