<svg xmlns="http://www.w3.org/2000/svg" id="svg2" width="1600" height="1500" viewBox="0 0 1600 1500"><g fill="#fff" transform="matrix(100 0 0 100 45100.391 -160500)"><path id="path1" d="m-449.5 1609c-.67616-.01-.67616 1.0096 0 1h3.06836c-.18417-.3108-.32709-.6451-.42188-1zm10.35352 0c-.0948.3549-.23771.6892-.42188 1h3.06055c.67616.01.67616-1.0096 0-1zm-10.35352 3c-.67616-.01-.67616 1.0096 0 1h12.99219c.67616.01.67616-1.0096 0-1zm0 3c-.67616-.01-.67616 1.0096 0 1h12.99219c.67616.01.67616-1.0096 0-1zm0 3c-.67616-.01-.67616 1.0096 0 1h12.99219c.67616.01.67616-1.0096 0-1z" opacity=".7"/><path id="circle1" stroke="#fff" stroke-linecap="round" stroke-linejoin="round" d="m-441.5 1608a1.5 1.5 0 0 1 -1.5 1.5 1.5 1.5 0 0 1 -1.5-1.5 1.5 1.5 0 0 1 1.5-1.5 1.5 1.5 0 0 1 1.5 1.5z"/></g></svg>