<svg xmlns="http://www.w3.org/2000/svg" width="1600" height="1600" viewBox="0 0 1600 1600"><g fill="#fff"><g><path d="m13 4h3v12h-3v-1.5c0-.2761-.2239-.5-.5-.5-.2761 0-.5.2239-.5.5v2c0 .2761.2239.5.5.5h4c.2761 0 .5-.2239.5-.5v-13c0-.27614-.2239-.5-.5-.5h-4c-.2761 0-.5.22386-.5.5v2c0 .27614.2239.5.5.5.2761 0 .5-.22386.5-.5z" opacity=".6" transform="matrix(100 0 0 -100 -200 1800)"/><path d="m4.16667 16v-12h4.83333v1h1v-1.5c0-.27614-.26117-.5-.58333-.5h-5.83334c-.32216 0-.58333.22386-.58333.5v13c0 .2761.26117.5.58333.5h5.83334c.32216 0 .58333-.2239.58333-.5v-1.5h-1v1z" transform="matrix(100 0 0 -100 -200 1800)"/><path d="m9 12h1v2h-1z" transform="matrix(100 0 0 -100 -200 1800)"/><path d="m10 6h-1v2h1z" transform="matrix(100 0 0 -100 -200 1800)"/><path d="m14.8536 9.64645-2-2c-.0905-.09049-.2155-.14645-.3536-.14645-.2761 0-.5.22385-.5.5v1.5h-5v1h5v1.5c0 .2761.2239.5.5.5.1381 0 .2631-.056.3536-.1464l2-2c.0904-.0905.1464-.2155.1464-.3536 0-.13808-.056-.26308-.1464-.35355z" transform="matrix(100 0 0 -100 -200 1800)"/></g></g></svg>