<svg xmlns="http://www.w3.org/2000/svg" id="svg2" width="1600" height="900" viewBox="0 0 1600 900"><path id="path2" fill="#fff" d="m184.49609 623.99414a.50005.50005 0 0 0 -.34961.85938l2.14649 2.14648h-10.58594l2.14649-2.14648a.50005.50005 0 1 0 -.70704-.70704l-3 3a.50005.50005 0 0 0 0 .70704l3 3a.50005.50005 0 1 0 .70704-.70704l-2.14649-2.14648h10.58594l-2.14649 2.14648a.50005.50005 0 1 0 .70704.70704l3-3a.50005.50005 0 0 0 0-.70704l-3-3a.50005.50005 0 0 0 -.35743-.15234z" transform="matrix(100 0 0 100 -17300 -62300)"/></svg>