<svg xmlns="http://www.w3.org/2000/svg" width="1600" height="1600" viewBox="0 0 1600 1600"><g fill="#fff"><g opacity=".6"><path d="m415.5 452.00781a.50005018.50005018 0 0 0 -.5.5v3.00781a.50005018.50005018 0 0 0 .5.5h3.00781a.50005018.50005018 0 0 0 .5-.5v-3.00781a.50005018.50005018 0 0 0 -.5-.5c-1.00251 0-2.00529 0-3.00781 0zm.5 1h2.00781v2.00781c-.66921 0-1.33859.00001-2.00781 0zm-10.5 9a.50005018.50005018 0 0 0 -.5.5v3.00781a.50005018.50005018 0 0 0 .5.5h3.00781a.50005018.50005018 0 0 0 .5-.5v-3.00781a.50005018.50005018 0 0 0 -.5-.5c-1.00251 0-2.00529 0-3.00781 0zm.5 1h2.00781v2.00781c-.66921 0-1.33859.00001-2.00781 0z" opacity="1" transform="matrix(100 0 0 100 -40400.39 -45101.1715)"/><path d="m411.50391 454a.50005.50005 0 0 0 -.35743.14648l-1 1a.50005.50005 0 1 0 .70704.70704l.85156-.85157.78515.006a.50005.50005 0 1 0 .006-1zm-3.01368 2.99609a.50005.50005 0 0 0 -.34375.15039l-1 1a.50005.50005 0 0 0 -.14648.35352v1.00781a.50005.50005 0 1 0 1 0v-.80078l.85352-.85351a.50005.50005 0 0 0 -.36329-.85743zm7.99415.9961a.50005.50005 0 0 0 -.49219.50781v.80078l-.85352.85352a.50005.50005 0 1 0 .70703.70703l1-1a.50005.50005 0 0 0 .14649-.35352v-1.00781a.50005.50005 0 0 0 -.50781-.50781zm-3.00196 4.00976a.50005.50005 0 0 0 -.34375.15235l-.85156.85156-.7832-.006a.50005.50005 0 1 0 -.008 1l.99219.008a.50005.50005 0 0 0 .35742-.14648l1-1a.50005.50005 0 0 0 -.36328-.85938z" opacity=".6" transform="matrix(100 0 0 100 -40400.39 -45101.1715)"/></g></g></svg>