<svg xmlns="http://www.w3.org/2000/svg" width="1600" height="1600" viewBox="0 0 1600 1600"><g fill="#fff"><g opacity=".6"><path d="m369.99998 160.99999c-2.20236 0-4 1.79764-4 4 0 2.20237 1.79764 4 4 4 2.20237 0 4-1.79763 4-4 0-2.20236-1.79763-4-4-4z" opacity="1" transform="matrix(100 0 0 100 -36200 -15700)"/><path d="m363.5 158a.50005.50005 0 0 0 -.5.5v13a.50005.50005 0 0 0 .5.5h13a.50005.50005 0 0 0 .5-.5v-13a.50005.50005 0 0 0 -.5-.5zm.5 1h12v12h-12z" opacity=".3" transform="matrix(100 0 0 100 -36200 -15700)"/></g></g></svg>