<svg xmlns="http://www.w3.org/2000/svg" width="1600" height="1600" viewBox="0 0 1600 1600"><g fill="#fff"><g><path d="m447.50977 297.01172a.50005.50005 0 1 0 0 1h6.2832c-.26437-.28877-.47061-.62726-.60742-1zm11.29882 0c-.13697.37274-.34281.71123-.60742 1h2.3086a.50005.50005 0 1 0 0-1z" transform="matrix(100 0 0 100 -46700.97699999999 35299.31400000001) translate(21 -636)"/><path d="m476.99609-342c1.09999 0 2.00391.90231 2.00391 2.00195 0 1.09965-.90392 2-2.00391 2-1.09998 0-2.00195-.90035-2.00195-2 0-1.09964.90197-2.00195 2.00195-2.00195z" transform="matrix(100 0 0 100 -46700.97699999999 35299.31400000001)"/><path d="m472.49805-351.99805c1.37513 0 2.50195 1.12557 2.50195 2.5 0 1.37444-1.12682 2.49805-2.50195 2.49805-1.37514 0-2.5-1.12361-2.5-2.49805 0-1.37443 1.12486-2.5 2.5-2.5zm0 1c-.83537 0-1.5.66668-1.5 1.5s.66463 1.49805 1.5 1.49805 1.50195-.66473 1.50195-1.49805-.66658-1.5-1.50195-1.5z" transform="matrix(100 0 0 100 -46700.97699999999 35299.31400000001)"/><path d="m472.50195-345.99609a.50005.50005 0 0 0 -.49218.50781v1a.50005.50005 0 1 0 1 0v-1a.50005.50005 0 0 0 -.50782-.50781zm0 3a.50005.50005 0 0 0 -.49218.50781v1a.50005.50005 0 1 0 1 0v-1a.50005.50005 0 0 0 -.50782-.50781z" opacity=".7" transform="matrix(100 0 0 100 -46700.97699999999 35299.31400000001)"/></g></g></svg>