<svg xmlns="http://www.w3.org/2000/svg" width="1600" height="1600" viewBox="0 0 1600 1600"><g fill="#fff"><g stroke="none" stroke-width="1.333"><path d="m262.58789 287.02734a.60006001.60006001 0 0 0 -.47266.95899l2.14844 3.02929-2.14844 3.0293a.60024527.60024527 0 1 0 .97852.69531l1.90625-2.6875 1.90625 2.6875a.60024527.60024527 0 1 0 .97852-.69531l-2.14844-3.0293 2.14844-3.02929a.60005997.60005997 0 0 0 -.041-.75781.60005997.60005997 0 0 0 -.9375.0625l-1.90625 2.6875-1.90625-2.6875a.60006001.60006001 0 0 0 -.0645-.0781.60006001.60006001 0 0 0 -.44141-.18555z" transform="matrix(-53.033 -53.033 -53.033 53.033 30287.154 3975.273) matrix(-.942809 -.942809 -.942809 .942809 832.145 223.544)"/><path d="m310.32458 237.24123a.66673335.66673335 0 0 0 -.58971-.19749c-6.22865.92525-11.88001 6.57661-12.80526 12.80526a.66680952.66680952 0 1 0 1.31891.19749c.82395-5.54666 6.1358-10.85851 11.68246-11.68246a.66673335.66673335 0 0 0 .3936-1.1228zm8.44938 8.44937a.66673335.66673335 0 0 1 .19749.58972c-.92525 6.22865-6.57661 11.88001-12.80526 12.80526a.66673335.66673335 0 1 1 -.19611-1.31753c5.54665-.82395 10.8585-6.1358 11.68245-11.68246a.66673335.66673335 0 0 1 1.12143-.39499z" transform="matrix(-53.033 -53.033 -53.033 53.033 30287.154 3975.273)"/></g></g></svg>