<svg xmlns="http://www.w3.org/2000/svg" width="1600" height="1600" viewBox="0 0 1600 1600"><g fill="#fff"><g><g opacity=".7"><path d="m344.49219 287.99219a.50005.50005 0 0 0 -.49219.50781v3a.50005.50005 0 1 0 1 0v-3a.50005.50005 0 0 0 -.50781-.50781zm0 5a.50005.50005 0 0 0 -.49219.50781v2a.50005.50005 0 0 0 .5.5h2a.50005.50005 0 1 0 0-1h-1.5v-1.5a.50005.50005 0 0 0 -.50781-.50781zm4.00781 2.00781a.50005.50005 0 1 0 0 1h3a.50005.50005 0 1 0 0-1z" opacity="1" transform="matrix(100 0 0 100 -34100 -28300)"/><path d="m351.5 293a.50005.50005 0 0 0 -.5.5v4a.50005.50005 0 0 0 .5.5h4a.50005.50005 0 0 0 .5-.5v-4a.50005.50005 0 0 0 -.5-.5zm.5 1h3v3h-3z" opacity="1" transform="matrix(100 0 0 100 -34100 -28300)"/></g><path d="m342.5 284c-.27613.00003-.49997.22387-.5.5v4c.00003.27613.22387.49997.5.5h4c.27613-.00003.49997-.22387.5-.5v-4c-.00003-.27613-.22387-.49997-.5-.5z" transform="matrix(100 0 0 100 -34100 -28300)"/></g></g></svg>