<svg xmlns="http://www.w3.org/2000/svg" width="1600" height="1600" viewBox="0 0 1600 1600"><g fill="#fff"><g><path d="m167 289v-2h-1v2zm0-3v-2h-1v2zm0 12v-2h-1v2zm0-3v-2h-1v2zm0-3v-2h-1v2z" transform="matrix(100 0 0 100 -15199.942 -28300)"/><path d="m160.5 285.99023a.50005.50005 0 0 0 -.34766.85743l1.14649 1.14648-6.29297 6.29297-1.14648-1.14649a.50005.50005 0 1 0 -.70704.70704l3 3a.50005.50005 0 1 0 .70704-.70704l-1.14649-1.14648 6.29297-6.29297 1.14648 1.14649a.50005.50005 0 1 0 .70704-.70704l-3-3a.50005.50005 0 0 0 -.35938-.15039z" opacity=".85" transform="matrix(100 0 0 100 -15199.942 -28300)"/></g></g></svg>