<svg xmlns="http://www.w3.org/2000/svg" width="1500" height="1600" viewBox="0 0 1500 1600"><g><g fill="#fff"><path d="m264.02413 311.53945a1.5 1.5 0 0 1 -1.5 1.5 1.5 1.5 0 0 1 -1.5-1.5 1.5 1.5 0 0 1 1.5-1.5 1.5 1.5 0 0 1 1.5 1.5z" transform="matrix(100 0 0 100 -25703.125 -30303.708)"/><path d="m269.02344 314.03906c-1.09865 0-2 .90136-2 2 0 1.09865.90135 2 2 2 1.09864 0 2-.90135 2-2 0-1.09864-.90136-2-2-2zm0 1c.5582 0 1 .4418 1 1 0 .55821-.4418 1-1 1-.55821 0-1-.44179-1-1 0-.5582.44179-1 1-1z" transform="matrix(100 0 0 100 -25703.125 -30303.708)"/><path d="m258.53125 304.03516a.50005.50005 0 1 0 0 1h12a.50005.50005 0 1 0 0-1z" transform="matrix(100 0 0 100 -25703.125 -30303.708)"/></g><path fill="#fbfbfb" d="m264.79492 304.18164a.60006002.60006002 0 0 0 -.58594.4043l-2.25 6.25a.60006002.60006002 0 1 0 1.12891.40625l2.25-6.25a.60006002.60006002 0 0 0 -.54297-.81055zm-1.27148 7.75391a.60006002.60006002 0 0 0 -.33594 1.09961l4 2.7207a.60006002.60006002 0 1 0 .67383-.99219l-4-2.7207a.60006002.60006002 0 0 0 -.33789-.10742z" opacity=".7" transform="matrix(100 0 0 100 -25703.125 -30303.708)"/></g></svg>