<svg xmlns="http://www.w3.org/2000/svg" width="1500" height="1500" viewBox="0 0 1500 1500"><g fill="#fff"><g><path d="m61 288v-2.5c-.000028-.27613-.223869-.49997-.5-.5h-2.5v1h2v2zm-13 0v-2.5c.000028-.27613.223869-.49997.5-.5h2.5v1h-2v2zm13 7v2.5c-.000028.27613-.223869.49997-.5.5h-2.5v-1h2v-2zm-13 0v2.5c.000028.27613.223869.49997.5.5h2.5v-1h-2v-2z" opacity=".6" transform="matrix(100 0 0 100 -4700 -28400)"/><path d="m54 285v2h1v-2zm-2.5 3c-.27613.00003-.49997.22387-.5.5v6c.00003.27613.22387.49997.5.5h6c.27613-.00003.49997-.22387.5-.5v-6c-.00003-.27613-.22387-.49997-.5-.5zm.5 1h5.027344v5h-5.027344zm-4 2v1h2v-1zm11 0v1h2v-1zm-5 5v2h1v-2z" transform="matrix(100 0 0 100 -4700 -28400)"/></g></g></svg>