<svg xmlns="http://www.w3.org/2000/svg" width="1600" height="1600" viewBox="0 0 1600 1600"><g fill="#fff"><g><path d="m216.5-282a.50005.50005 0 0 0 -.5.5v6a.50005.50005 0 0 0 .5.5h7a.50005.50005 0 0 0 .5-.5v-6a.50005.50005 0 0 0 -.5-.5zm.5 1h6v5h-6z" opacity=".7" transform="matrix(100 0 0 100 -21500 29000.00000000001)"/><path d="m226.5-289a.50005.50005 0 0 0 -.5.5v13a.50005.50005 0 0 0 .5.5h3a.50005.50005 0 0 0 .5-.5v-13a.50005.50005 0 0 0 -.5-.5zm.5 1h2v12h-2z" transform="matrix(100 0 0 100 -21500 29000.00000000001)"/></g></g></svg>