<svg xmlns="http://www.w3.org/2000/svg" width="1600" height="1600" viewBox="0 0 1600 1600"><g fill="#fff"><g><path d="m292.49023 367.99609a.50005.50005 0 0 0 -.34375.15039l-10 10a.50005.50005 0 1 0 .70704.70704l10-10a.50005.50005 0 0 0 -.36329-.85743z" transform="matrix(100 0 0 100 -27799.844 -36700.15110000001)"/><path d="m289.5 368a.50005.50005 0 1 0 0 1h2.5v2.5a.50005.50005 0 1 0 1 0v-3a.50005.50005 0 0 0 -.5-.5zm-5 5a.50005.50005 0 1 0 0 1h2.5v2.5a.50005.50005 0 1 0 1 0v-3a.50005.50005 0 0 0 -.5-.5zm-5 5a.50005.50005 0 1 0 0 1h2.5v2.5a.50005.50005 0 1 0 1 0v-3a.50005.50005 0 0 0 -.5-.5z" opacity=".7" transform="matrix(100 0 0 100 -27799.844 -36700.15110000001)"/></g></g></svg>