<svg xmlns="http://www.w3.org/2000/svg" width="1600" height="1600" viewBox="0 0 1600 1600"><g fill="#fff"><g><path d="m258.49805 325.99414a.50005.50005 0 0 0 -.5.5v2a.50005.50005 0 0 0 .5.5h2a.50005.50005 0 0 0 .5-.5v-2a.50005.50005 0 0 0 -.5-.5zm11.00976 0a.50005.50005 0 0 0 -.5.5v2a.50005.50005 0 0 0 .5.5h2a.50005.50005 0 0 0 .5-.5v-2a.50005.50005 0 0 0 -.5-.5zm-10.50976 1h1v1h-1zm11.00976 0h1v1h-1zm-11.50976 10a.50005.50005 0 0 0 -.5.5v2a.50005.50005 0 0 0 .5.5h2a.50005.50005 0 0 0 .5-.5v-2a.50005.50005 0 0 0 -.5-.5zm11.00976 0a.50005.50005 0 0 0 -.5.5v2a.50005.50005 0 0 0 .5.5h2a.50005.50005 0 0 0 .5-.5v-2a.50005.50005 0 0 0 -.5-.5zm-10.50976 1h1v1h-1zm11.00976 0h1v1h-1z" opacity=".6" transform="matrix(100 0 0 100 -25700.293 -32499.414)"/><path d="m265 328c-2.75536 0-5 2.24449-5 5s2.24464 5 5 5 5-2.24449 5-5-2.24464-5-5-5zm0 1c2.21488 0 4 1.78488 4 4s-1.78512 4-4 4-4-1.78488-4-4 1.78512-4 4-4z" transform="matrix(100 0 0 100 -25700.293 -32499.414)"/></g></g></svg>