<svg xmlns="http://www.w3.org/2000/svg" id="svg1" width="1400" height="1600" viewBox="0 0 1400 1600"><g id="g1" fill="#fff"><path id="path1" d="m618 63h1v1.999999h-1zm-2 0h1v1.999999h-1zm-2 0h1v1.999999h-1zm-.46289-10c-.84275 0-1.53711.694362-1.53711 1.537109v10.925782c0 .842747.69436 1.537109 1.53711 1.537109h8.92578c.73741 0 1.53609-.558096 1.53292-1.228516.005-3.713496.004-7.491975.004-11.234375.00019-.842747-.69417-1.537109-1.53692-1.537109zm0 9h8.92578c.30605 0 .53711.231065.53711.537109v2.925782c0 .306044-.23106.537109-.53711.537109h-8.92578c-.30605 0-.53711-.231065-.53711-.537109v-2.925782c0-.306044.23106-.537109.53711-.537109z" transform="matrix(100 0 0 100 -61099.998 -5200)"/></g></svg>