<svg xmlns="http://www.w3.org/2000/svg" width="1600" height="1600" viewBox="0 0 1600 1600"><g fill="#fff"><g><path d="m1240.9492 1334.9492v5h4v-5z" transform="matrix(100 0 0 100 -122994.915 -132494.92)"/><path d="m1236.6992 1327.9531v1h2.25c.4241 0 .7403.2467.8828.5762s.1253.7107-.2422 1.0781l-4 4c-.6325.6326-.7433 1.5055-.4492 2.1778.2941.6722.9778 1.1757 1.8028 1.1757l3.0059-.012v-1l-3.0058.012c-.425 0-.7434-.2484-.8868-.5761-.1434-.3278-.1271-.7029.2403-1.0703l4-4c.6326-.6326.7446-1.5077.4531-2.1817s-.9748-1.1797-1.8008-1.1797z" opacity=".8" transform="matrix(100 0 0 100 -122994.915 -132494.92)"/><path d="m1233.4531 1325.9492c-.191 0-.3661.1064-.4511.2774l-2 4c-.1651.3322.076.7222.4472.7226h4c.371-.0004.6124-.3904.4473-.7226l-2-4c-.084-.1686-.2552-.2758-.4434-.2774z" transform="matrix(100 0 0 100 -122994.915 -132494.92)"/></g></g></svg>