<svg xmlns="http://www.w3.org/2000/svg" width="1600" height="1600" viewBox="0 0 1600 1600"><g fill="#fff"><path d="m247.59961 579a.60006002.60006002 0 0 0 -.41797 1.03125l2.78711 2.78711a.60076499.60076499 0 0 0 .84961-.84961l-2.78711-2.78711a.60006002.60006002 0 0 0 -.43164-.18164zm-.11133 2.89453a.60006002.60006002 0 0 0 -.41211.18164l-1 1a.60006002.60006002 0 1 0 .84766.84766l1-1a.60006002.60006002 0 0 0 -.43555-1.0293zm-3 3a.60006002.60006002 0 0 0 -.41211.18164l-1 1a.60006002.60006002 0 1 0 .84766.84766l1-1a.60006002.60006002 0 0 0 -.43555-1.0293zm-3 3a.60006002.60006002 0 0 0 -.41211.18164l-1 1a.60006002.60006002 0 1 0 .84766.84766l1-1a.60006002.60006002 0 0 0 -.43555-1.0293zm-3.88867 1.10547a.60006002.60006002 0 0 0 -.41797 1.03125l2.78711 2.78711a.60076499.60076499 0 0 0 .84961-.84961l-2.78711-2.78711a.60006002.60006002 0 0 0 -.43164-.18164z" transform="matrix(100 0 0 100 -23599.66000000001 -57799.716)"/></g></svg>