<svg xmlns="http://www.w3.org/2000/svg" width="1600" height="1600" viewBox="0 0 1600 1600"><g fill="#fff"><g><path d="m471.54297 473-3 3h1.20703 8.20703l3-3zm.41406 1h6.58594l-1 1h-6.58594zm5.54297 3-9.00781.008a.50005.50005 0 0 0 -.5.5v9a.50005.50005 0 0 0 .5.5h9a.50005.50005 0 0 0 .5-.5l.00781-9.008a.50005.50005 0 0 0 -.5-.5zm-.5 1-.008 8.00781h-8v-8.00195z" opacity=".6" transform="matrix(100 0 0 100 -48799.60999999999 -28300.4) translate(21 -189)"/><path d="m503 285.04297-.85352.85351-2.14648 2.14649v9.41406l3-3z" transform="matrix(100 0 0 100 -48799.60999999999 -28300.4)"/></g></g></svg>