<svg xmlns="http://www.w3.org/2000/svg" width="1600" height="1600" viewBox="0 0 1600 1600"><g fill="#fff"><g opacity=".99"><path d="m1339.5-270a.50004994.50004994 0 1 0 0 1h6a.50004994.50004994 0 1 0 0-1zm0 3a.50004994.50004994 0 1 0 0 1h6a.50004994.50004994 0 1 0 0-1zm0 3a.50004994.50004994 0 1 0 0 1h6a.50004994.50004994 0 1 0 0-1zm-7 3a.50004994.50004994 0 1 0 0 1h13a.50004994.50004994 0 1 0 0-1zm-.014 3a.50004994.50004994 0 1 0 0 1h13.0449a.50004994.50004994 0 1 0 0-1z" opacity="1" transform="matrix(100 0 0 100 -133100.845 27200.07200000001)"/><path d="m1332.4922-263c-.2761-.004-.4965-.23166-.4922-.50781v-5.08789c0-.86662.4883-1.66406 1.2578-2.08789.7696-.42387 1.709-.42387 2.4785 0 .7695.42383 1.2559 1.22127 1.2559 2.08789v5.08789c.01.67616-1.0096.67616-1 0v-2.49219h-2.9922v2.49219c0 .28226-.2255.51222-.5078.50781zm.5078-4h2.9922v-1.5957c0-.49379-.2728-.95455-.7383-1.21094-.4655-.25638-1.0482-.25638-1.5137 0-.4655.25639-.7402.71715-.7402 1.21094z" opacity="1" transform="matrix(100 0 0 100 -133100.845 27200.07200000001)"/></g></g></svg>