<svg xmlns="http://www.w3.org/2000/svg" width="1600" height="1500" viewBox="0 0 1600 1500"><g fill="#fff"><g><path d="m363.5 95c-.27613.00003-.49997.22387-.5.5v3.5h14v-1.5c-.00003-.27613-.22387-.49997-.5-.5h-8.5v-1.5c-.00003-.27613-.22387-.49997-.5-.5z" transform="matrix(100 0 0 100 -36200 -9400)"/><path d="m363.5 100c-.27613.00003-.49997.22387-.5.5v7c.00003.27613.22387.49997.5.5h13c.27613-.00003.49997-.22387.5-.5v-7c-.00003-.27613-.22387-.49997-.5-.5z" transform="matrix(100 0 0 100 -36200 -9400)"/></g></g></svg>