<svg xmlns="http://www.w3.org/2000/svg" width="1500" height="1600" viewBox="0 0 1500 1600"><g fill="#fff"><g stroke="none"><path d="m469.49414 55.992188a.50004982.50004982 0 0 0 -.49219.507812v7a.50004982.50004982 0 1 0 1 0v-7a.50004982.50004982 0 0 0 -.50781-.507812zm2 1a.50004982.50004982 0 0 0 -.49219.507812v7a.50004982.50004982 0 1 0 1 0v-7a.50004982.50004982 0 0 0 -.50781-.507812zm2 1a.50004982.50004982 0 0 0 -.49219.507812v7a.50004982.50004982 0 1 0 1 0v-7a.50004982.50004982 0 0 0 -.50781-.507812zm2 1a.50004982.50004982 0 0 0 -.49219.507812v7a.50004982.50004982 0 1 0 1 0v-7a.50004982.50004982 0 0 0 -.50781-.507812z" transform="matrix(100 0 0 100 -46800.195 -5199.963)"/><path d="m471.49609 54.992188a.50004982.50004982 0 0 0 -.49414.505859v.25a.50004982.50004982 0 1 0 1 .0039v-.25a.50004982.50004982 0 0 0 -.50586-.509765zm2 1a.50004982.50004982 0 0 0 -.49414.505859l-.002.25a.50004982.50004982 0 1 0 1 .0039l.002-.25a.50004982.50004982 0 0 0 -.50586-.509765zm2 1a.50004982.50004982 0 0 0 -.49414.505859l-.002.25a.50004982.50004982 0 1 0 1 .0039l.002-.25a.50004982.50004982 0 0 0 -.50586-.509765zm1.99805 1a.50004982.50004982 0 0 0 -.49219.507812v7a.50004982.50004982 0 1 0 1 0v-7a.50004982.50004982 0 0 0 -.50781-.507812z" opacity=".9" transform="matrix(100 0 0 100 -46800.195 -5199.963)"/><path d="m473.49609 53.992188a.50004982.50004982 0 0 0 -.49414.505859v.25a.50004982.50004982 0 1 0 1 .0039v-.25a.50004982.50004982 0 0 0 -.50586-.509765zm2 1a.50004982.50004982 0 0 0 -.49414.505859l-.002.25a.50004982.50004982 0 1 0 1 .0039l.002-.25a.50004982.50004982 0 0 0 -.50586-.509765zm2 1a.50004982.50004982 0 0 0 -.49414.505859l-.002.25a.50004982.50004982 0 1 0 1 .0039l.002-.25a.50004982.50004982 0 0 0 -.50586-.509765zm1.99805 1a.50004982.50004982 0 0 0 -.49219.507812v7a.50004982.50004982 0 1 0 1 0v-7a.50004982.50004982 0 0 0 -.50781-.507812z" opacity=".8" transform="matrix(100 0 0 100 -46800.195 -5199.963)"/><path d="m475.49609 52.992188a.50004982.50004982 0 0 0 -.49414.505859v.25a.50004982.50004982 0 1 0 1 .0039v-.25a.50004982.50004982 0 0 0 -.50586-.509765zm2 1a.50004982.50004982 0 0 0 -.49414.505859l-.002.25a.50004982.50004982 0 1 0 1 .0039l.002-.25a.50004982.50004982 0 0 0 -.50586-.509765zm2 1a.50004982.50004982 0 0 0 -.49414.505859l-.002.25a.50004982.50004982 0 1 0 1 .0039l.002-.25a.50004982.50004982 0 0 0 -.50586-.509765zm1.99805 1a.50004982.50004982 0 0 0 -.49219.507812v7a.50004982.50004982 0 1 0 1 0v-7a.50004982.50004982 0 0 0 -.50781-.507812z" opacity=".7" transform="matrix(100 0 0 100 -46800.195 -5199.963)"/></g></g></svg>