<svg xmlns="http://www.w3.org/2000/svg" id="svg7" width="1600" height="1600" viewBox="0 0 1600 1600"><g fill="#fff" transform="matrix(100 0 0 100 -40300.002 6599.822)"><path id="path1" d="m411-64.999997v3h1v-3zm0 3h-1v3h1zm3-3v3h1v-3zm0 3h-1v3h1zm3-3v3h1v-3zm0 3h-1v3h1z"/><g stroke-linejoin="round"><path id="path2" d="m404.5-58.996091c-.27613.000028-.49997.223869-.5.5v3 2.048828c0 1.35553 1.13036 2.451172 2.5 2.451172s2.5-1.095642 2.5-2.451172v-2.048828-3c-.00003-.276131-.22387-.499972-.5-.5zm.5 4h3v1.548828c0 .805066-.65364 1.451172-1.5 1.451172s-1.5-.646106-1.5-1.451172z"/><path id="path8" stroke-linecap="round" d="m404.5-63.996094c-.27613.000028-.49997.223869-.5.5v3c.00003.276131.22387.499972.5.5h4c.27613-.000028.49997-.223869.5-.5v-3c-.00003-.276131-.22387-.499972-.5-.5h-2-1z"/></g></g></svg>