<svg xmlns="http://www.w3.org/2000/svg" width="1600" height="1600" viewBox="0 0 1600 1600"><g fill="#fff"><g><path d="m264.5 688c-1.933 0-3.5 1.567-3.5 3.5s1.567 3.5 3.5 3.5 3.5-1.567 3.5-3.5-1.567-3.5-3.5-3.5zm-.5 1h1v2h2v1h-2v2h-1v-2h-2v-1h2z" transform="matrix(100 0 0 100 -25299.957 -68699.98)"/><path fill-rule="evenodd" d="m366.48438 579c-.12718.004-.248.0564-.3379.14648l-3 3c-.31479.315-.0918.85335.35352.85352h3c.27613-.00003.49997-.22387.5-.5v-2.5h1.5c.67616.01.67616-1.00956 0-1h-2v.002c-.005 0-.0101-.002-.0156-.002zm-3.48438 5v7.5c.00003.27613.22387.49997.5.5h10c.27613-.00003.49997-.22387.5-.5v-5c.01-.67616-1.00956-.67616-1 0v4.5h-9v-7z" opacity=".6" transform="matrix(100 0 0 100 -25299.957 -68699.98) translate(-109 109.9996)"/></g></g></svg>