<svg xmlns="http://www.w3.org/2000/svg" width="1600" height="1600" viewBox="0 0 1600 1600"><g fill="#fff"><path d="m363.5 431a.50005.50005 0 0 0 -.5.5v1a.50005.50005 0 0 0 .14648.35352l4.85352 4.85351v3.79297a.50005.50005 0 0 0 .14648.35352l3 3a.50005.50005 0 0 0 .85352-.35352v-6.79297l4.85352-4.85351a.50005.50005 0 0 0 .14648-.35352v-1a.50005.50005 0 0 0 -.5-.5zm.5 1h12v.29297l-4.85352 4.85351a.50005.50005 0 0 0 -.14648.35352v5.79297l-2-2v-3.79297a.50005.50005 0 0 0 -.14648-.35352l-4.85352-4.85351z" transform="matrix(-100 0 0 100 37800.00000000001 -42999.9931)"/></g></svg>