<svg xmlns="http://www.w3.org/2000/svg" width="1600" height="1600" viewBox="0 0 1600 1600"><g fill="#fff"><g><path d="m153 284v2h2v-2zm2 2v2h2v-2zm2 0h2v-2h-2zm2 0v2h2v-2zm2 0h2v-2h-2zm-6 8v-2h-2v2zm0-2h2v-2h-2zm0-2v-2h-2v2zm2 0h2v-2h-2zm2 0v2h2v-2zm2 0h2v-2h-2zm-2 2h-2v2h2z" transform="matrix(-100 0 0 100 16799.804 -28300)"/><path d="m163.99805 292.00391c-1.65006 0-2.99805 1.34799-2.99805 2.99804 0 1.65006 1.34799 2.99805 2.99805 2.99805 1.65005 0 2.99804-1.34799 2.99804-2.99805 0-1.65005-1.34799-2.99804-2.99804-2.99804z" opacity=".6" transform="matrix(-100 0 0 100 16799.804 -28300)"/></g></g></svg>