<svg xmlns="http://www.w3.org/2000/svg" width="1600" height="1600" viewBox="0 0 1600 1600"><g fill="#fff"><g stroke="none"><path d="m267.50195 451.98633a.50005.50005 0 0 0 -.34765.85937l2.66015 2.66016-2.67383 2.89648a.50005.50005 0 0 0 -.13281.33985v.5a.50005.50005 0 0 0 .13281.33984l2.67383 2.89649-2.66015 2.66015a.50005.50005 0 1 0 .70703.70703l3-3a.50005.50005 0 0 0 .0137-.69336l-2.86719-3.10546v-.10938l2.86719-3.10547a.50005.50005 0 0 0 -.0137-.69336l-3-3a.50005.50005 0 0 0 -.35938-.15234z" opacity=".7" transform="matrix(100 0 0 100 -25700.42700000001 -45099.289)"/><path d="m263.50195 451.98633a.50005.50005 0 0 0 -.34765.85937l2.66015 2.66016-2.67383 2.89648a.50005.50005 0 0 0 -.13281.33985v.5a.50005.50005 0 0 0 .13281.33984l2.67383 2.89649-2.66015 2.66015a.50005.50005 0 1 0 .70703.70703l3-3a.50005.50005 0 0 0 .0137-.69336l-2.86719-3.10546v-.10938l2.86719-3.10547a.50005.50005 0 0 0 -.0137-.69336l-3-3a.50005.50005 0 0 0 -.35938-.15234z" opacity=".85" transform="matrix(100 0 0 100 -25700.42700000001 -45099.289)"/><path d="m259.50195 451.98633a.50005.50005 0 0 0 -.34765.85937l2.66015 2.66016-2.67383 2.89648a.50005.50005 0 0 0 -.13281.33985v.5a.50005.50005 0 0 0 .13281.33984l2.67383 2.89649-2.66015 2.66015a.50005.50005 0 1 0 .70703.70703l3-3a.50005.50005 0 0 0 .0137-.69336l-2.86719-3.10546v-.10938l2.86719-3.10547a.50005.50005 0 0 0 -.0137-.69336l-3-3a.50005.50005 0 0 0 -.35938-.15234z" transform="matrix(100 0 0 100 -25700.42700000001 -45099.289)"/></g></g></svg>