<svg xmlns="http://www.w3.org/2000/svg" xmlns:svg="http://www.w3.org/2000/svg" id="svg3" width="1600" height="1600" version="1.1" viewBox="0 0 1600 1600"><defs id="defs3"><filter id="mask-powermask-path-effect4_inverse" width="100" height="100" x="-50" y="-50" style="color-interpolation-filters:sRGB"><feColorMatrix id="mask-powermask-path-effect4_primitive1" result="fbSourceGraphic" type="saturate" values="1"/><feColorMatrix id="mask-powermask-path-effect4_primitive2" in="fbSourceGraphic" values="-1 0 0 0 1 0 -1 0 0 1 0 0 -1 0 1 0 0 0 1 0"/></filter><filter id="mask-powermask-path-effect13_inverse" width="100" height="100" x="-50" y="-50" style="color-interpolation-filters:sRGB"><feColorMatrix id="mask-powermask-path-effect13_primitive1" result="fbSourceGraphic" type="saturate" values="1"/><feColorMatrix id="mask-powermask-path-effect13_primitive2" in="fbSourceGraphic" values="-1 0 0 0 1 0 -1 0 0 1 0 0 -1 0 1 0 0 0 1 0"/></filter><filter id="mask-powermask-path-effect17_inverse" width="100" height="100" x="-50" y="-50" style="color-interpolation-filters:sRGB"><feColorMatrix id="mask-powermask-path-effect17_primitive1" result="fbSourceGraphic" type="saturate" values="1"/><feColorMatrix id="mask-powermask-path-effect17_primitive2" in="fbSourceGraphic" values="-1 0 0 0 1 0 -1 0 0 1 0 0 -1 0 1 0 0 0 1 0"/></filter></defs><g id="g3" fill="#fff" style="display:none"><g id="g5"><g id="g4"><g id="g2" opacity=".99" transform="matrix(100,0,0,100,-48800,-19899.963)"><path id="path1" d="M 495.49219,199.99219 A 0.50005,0.50005 0 0 0 495,200.5 v 6.79297 l -3.85352,3.85351 a 0.50005,0.50005 0 1 0 0.70704,0.70704 L 495.70703,208 H 502.5 a 0.50005,0.50005 0 1 0 0,-1 H 496 v -6.5 a 0.50005,0.50005 0 0 0 -0.50781,-0.50781 z" opacity="1"/><path id="path2" d="m 499.49023,202.99609 a 0.50005,0.50005 0 0 0 -0.34375,0.15039 l -2,2 a 0.50005,0.50005 0 1 0 0.70704,0.70704 l 2,-2 a 0.50005,0.50005 0 0 0 -0.36329,-0.85743 z M 489.5,207 a 0.50005,0.50005 0 1 0 0,1 h 3.25 a 0.50005,0.50005 0 1 0 0,-1 z m 5.99219,2.74219 A 0.50005,0.50005 0 0 0 495,210.25 v 3.25 a 0.50005,0.50005 0 1 0 1,0 v -3.25 a 0.50005,0.50005 0 0 0 -0.50781,-0.50781 z" opacity=".6"/></g></g></g></g><g id="layer1"><path style="color:#000;display:inline;fill:#fff;stroke-linejoin:round;-inkscape-stroke:none" id="path4" d="m 1100,225.83008 c -44.8744,0 -86.5355,24.05165 -108.97266,62.91406 h 0.002 l -300.83789,521.0625 c -22.60964,39.16103 -22.60963,87.63389 0,126.79492 C 712.80103,975.76259 754.78074,1000 800,1000 h 600 c 45.2192,-3e-5 87.197,-24.23742 109.8066,-63.39844 22.6096,-39.16102 22.6097,-87.63195 0,-126.79297 L 1208.9707,288.74414 v 0 C 1186.5355,249.88173 1144.8744,225.83008 1100,225.83008 Z"/><path id="path3" d="m 500,100 c -220.32124,0 -400,179.67876 -400,400 0,131.59237 64.13891,248.62332 162.72034,321.57873 22.18264,16.41632 45.30496,4.85701 54.36188,-21.19654 0.22088,-0.63538 0.44382,-1.26977 0.66883,-1.90317 9.23262,-25.98976 1.38973,-57.26331 -19.07836,-75.75221 C 238.01459,667.93412 200,588.61487 200,500 200,333.72266 333.72266,200 500,200 c 114.00907,0 212.65908,62.88761 263.42614,156.01778 21.12726,38.75714 46.45545,43.58478 68.59301,5.24196 l 3.34702,-5.79711 c 11.62982,-20.14315 12.65529,-53.4221 -0.0293,-72.90553 C 763.8993,172.82969 640.22189,100 500,100 Z" style="color:#000;display:none;fill:#fff;fill-opacity:.6;stroke-linejoin:round;-inkscape-stroke:none"/><path id="rect5" d="m 600,700 c -109.93481,0 -200,90.06519 -200,200 v 400 c 0,109.9348 90.06519,200 200,200 h 400 c 109.9348,0 200,-90.0652 200,-200 v -156.752 c -0,-23.8511 -19.3149,-43.1973 -43.166,-43.2421 H 800 c -80.94767,0 -155.94219,-43.2978 -196.41602,-113.40043 -40.47383,-70.10274 -40.47384,-156.69805 0,-226.80078 l 15.47223,-26.79787 A 22.004379,22.004379 60.000376 0 0 600,700 Z" style="color:#000;display:inline;fill:#fff;fill-opacity:.8;stroke-linejoin:round;-inkscape-stroke:none"/><path id="path21" d="m 500,100 c -220.91368,0 -400,179.08632 -400,400 0.29932,105.42448 42.06593,204.75768 113.62706,278.14783 15.03694,15.42126 31.38941,29.69705 48.94911,42.64319 C 284.78824,837.16718 300,827.58204 300,800 300,700 370.58046,500 600,500 h 50 a 86.559786,86.559786 149.98775 0 0 74.98148,-43.31196 l 76.1334,-131.99727 c 13.79689,-23.92054 18.62639,-65.85559 1.06101,-87.06829 C 797.94215,232.50962 792.08193,226.39833 782.8418,217.1582 707.82732,142.14373 606.08649,100 500,100 Z" transform="translate(0,100)" style="fill:#fff;fill-opacity:.6;stroke:none;stroke-width:100;stroke-linejoin:round;stroke-opacity:1"/></g></svg>