<svg xmlns="http://www.w3.org/2000/svg" width="1600" height="1600" viewBox="0 0 1600 1600"><g fill="#fff"><g><path d="m405.5 476.00781c-.27613.00003-.49997.22387-.5.5v3c.00003.27613.22387.49997.5.5.99999-.00001 1.99999.00001 3 0 .27613-.00003.49997-.22387.5-.5v-3c-.00003-.27613-.22387-.49997-.5-.5zm5 1.99219c-.27613.00003-.49997.22387-.5.5v3c.00003.27613.22387.49997.5.5 1 0 1.99999.00001 3 0 .27613-.00003.49997-.22387.5-.5v-3c-.00003-.27613-.22387-.49997-.5-.5-1 0-1.99999-.00001-3 0zm-5 3.00781c-.27613.00003-.49997.22387-.5.5v3c.00003.27613.22387.49997.5.5.99999-.00001 1.99999.00001 3 0 .27613-.00003.49997-.22387.5-.5v-3c-.00003-.27613-.22387-.49997-.5-.5zm5 1.99219c-.27613.00003-.49997.22387-.5.5v3c.00003.27613.22387.49997.5.5.99999-.00001 1.99999.00001 3 0 .27613-.00003.49997-.22387.5-.5v-3c-.00003-.27613-.22387-.49997-.5-.5z" transform="matrix(100 0 0 100 -40400.796 -47200.4101)"/><path d="m452.49219 387a.50005018.50005018 0 0 0 -.5.5v3.00781a.50005018.50005018 0 0 0 .5.5h3.00781a.50005018.50005018 0 0 0 .5-.5v-3.00781a.50005018.50005018 0 0 0 -.5-.5c-1.00252 0-2.0053 0-3.00781 0zm.5 1h2.00781v2.00781c-.66922 0-1.3386 0-2.00781 0zm4.50781 1.98438a.50005018.50005018 0 0 0 -.5.5v3.00781a.50005018.50005018 0 0 0 .5.5h3.00781a.50005018.50005018 0 0 0 .5-.5v-3.00781a.50005018.50005018 0 0 0 -.5-.5c-1.00252 0-2.00529 0-3.00781 0zm.5 1c.66922-.00001 1.3386 0 2.00781 0v2.00781c-.66922 0-1.33859 0-2.00781 0zm-.49219 4a.50005018.50005018 0 0 0 -.5.5v3.00781a.50005018.50005018 0 0 0 .5.5h3.00781a.50005018.50005018 0 0 0 .5-.5v-3.00781a.50005018.50005018 0 0 0 -.5-.5c-1.00252 0-2.00529 0-3.00781 0zm.5 1c.66922-.00001 1.3386 0 2.00781 0v2.00781c-.66921 0-1.33859 0-2.00781 0z" opacity=".6" transform="matrix(100 0 0 100 -40400.796 -47200.4101) translate(-41.9997 86.0082)"/></g></g></svg>