<svg xmlns="http://www.w3.org/2000/svg" width="1600" height="1600" viewBox="0 0 1600 1600"><g fill="#fff"><g><path fill-rule="evenodd" d="m132.5 557a.50005.50005 0 0 0 -.5.5v13a.50005.50005 0 0 0 .5.5h13a.50005.50005 0 0 0 .5-.5v-8a.50005.50005 0 1 0 -1 0v7.5h-12v-12h1.5a.50005.50005 0 1 0 0-1z" opacity=".7" transform="matrix(100 0 0 100 -13100.002 -55599.997)"/><path d="m136.5 557c-.25 0-.5.25-.5.5v5.5c0 .5.25 1 1 1s1-.5 1-1v-1c0-.5.53412-1 1-1 .55229 0 1 .44772 1 1v3.5c0 .82843.67157 1.5 1.5 1.5s1.5-.67157 1.5-1.5v-3.5c0-.55228.44772-1 1-1h.5c.85547 0 1.5-.66406 1.5-1.5v-2c0-.25-.25-.5-.5-.5z" transform="matrix(100 0 0 100 -13100.002 -55599.997)"/></g></g></svg>