<svg xmlns="http://www.w3.org/2000/svg" width="1600" height="1600" viewBox="0 0 1600 1600"><g fill="#fff"><g><path d="m30.492188 367.99219a.50005.50005 0 0 0 -.492188.50781v9.79297l-2.853516 2.85351a.50005.50005 0 1 0 .707032.70704l2.853515-2.85352h9.792969a.50005.50005 0 1 0 0-1h-9.5v-9.5a.50005.50005 0 0 0 -.507812-.50781z" transform="matrix(100 0 0 100 -75200 13200.03700000001) translate(726 -499)"/><g opacity=".99"><path fill-rule="evenodd" d="m653.5-359a.50005.50005 0 0 0 -.5.5v8 .5h1v-.5-7.5h7.5.5v-1h-.5z" opacity=".6" transform="matrix(100 0 0 100 -75200 13200.03700000001) matrix(-1 0 0 1 1420 228)"/><path d="m542 349c-.54636 0-1 .45364-1 1s.45364 1 1 1 1-.45364 1-1-.45364-1-1-1zm-3.48047 2.05078c-.16946-.008-.32881.0808-.41211.22852l-2.25 4c-.17018.3004.0473.67264.39258.67187h4.5c.34528.00077.56276-.37147.39258-.67187l-2.25-4c-.0765-.13552-.21755-.22152-.37305-.22852z" opacity="1" transform="matrix(100 0 0 100 -75200 13200.03700000001) matrix(-1 0 0 1 1420 228) matrix(-1 0 0 1 1198 -706)"/></g></g></g></svg>