<svg xmlns="http://www.w3.org/2000/svg" width="1600" height="1500" viewBox="0 0 1600 1500"><g fill="#fff"><g><path d="m186.5 201a.50005.50005 0 0 0 -.40039.19922c-1.548 2.064-2.85356 4.80197-4.58594 6.99023-1.73238 2.18827-3.81151 3.81055-7.01367 3.81055a.50005.50005 0 1 0 0 1c3.54784 0 5.96871-1.87772 7.79883-4.18945 1.7781-2.24603 3.06678-4.88493 4.4707-6.81055h.73047a.50005.50005 0 1 0 0-1z" transform="matrix(100 0 0 100 -17299.999 -19899.795)"/><path d="m176.48438 199.99609a.50005.50005 0 0 0 -.3379.14649l-2 2a.50005.50005 0 1 0 .70704.70703l1.14648-1.14649v4.79688a.50005.50005 0 1 0 1 0v-6.00391a.50005.50005 0 0 0 -.51562-.5z" transform="matrix(100 0 0 100 -17299.999 -19899.795)"/></g></g></svg>