<svg xmlns="http://www.w3.org/2000/svg" xmlns:svg="http://www.w3.org/2000/svg" id="svg1" width="1800" height="1800" version="1.1" viewBox="0 0 1800 1800"><path id="path1" d="m 31.484375,450.99731 c -1.92123,0 -3.483002,1.56042 -3.483002,3.48165 v 9.03666 c 0,1.92123 1.561772,3.48168 3.483002,3.48168 h 9.095609 c 1.92123,0 3.485856,-1.56045 3.485856,-3.48168 v -9.03666 c 0,-1.92123 -1.564626,-3.48165 -3.485856,-3.48165 z m 0,1.00001 h 9.095609 c 1.38453,0 2.481865,1.09711 2.481865,2.48164 v 9.03666 c 0,1.38453 -1.097335,2.48168 -2.481865,2.48168 h -9.095609 c -1.38453,0 -2.479002,-1.09715 -2.479002,-2.48168 v -9.03666 c 0,-1.38453 1.094472,-2.48164 2.479002,-2.48164 z" transform="matrix(99.598235,0,0,100,-2688.8846,-44999.729)" style="fill:#fff"/><path id="path1-8" d="M 446.56445 199.33398 C 308.49367 199.33398 199.34766 309.18287 199.34766 447.81055 L 199.34766 1352.6172 C 199.34766 1491.2448 308.49367 1601.0996 446.56445 1601.0996 L 1353.6152 1601.0996 C 1491.6859 1601.0996 1601.1172 1491.2448 1601.1172 1352.6172 L 1601.1172 447.81055 C 1601.1172 309.18287 1491.6859 199.33398 1353.6152 199.33398 L 446.56445 199.33398 z M 400.10547 400.35352 L 873.86328 400.35352 L 873.86328 874.11133 L 400.10547 874.11133 L 400.10547 400.35352 z M 925.8418 400.35352 L 1399.5996 400.35352 L 1399.5996 874.11133 L 925.8418 874.11133 L 925.8418 400.35352 z M 400.10547 926.13086 L 873.86328 926.13086 L 873.86328 1399.8887 L 400.10547 1399.8887 L 400.10547 926.13086 z M 925.8418 926.13086 L 1399.5996 926.13086 L 1399.5996 1399.8887 L 925.8418 1399.8887 L 925.8418 926.13086 z" style="fill:#fff;stroke-width:1.00126;fill-opacity:.80000001"/></svg>