<svg xmlns="http://www.w3.org/2000/svg" xmlns:svg="http://www.w3.org/2000/svg" id="svg1" width="3400" height="1800" version="1.1" viewBox="0 0 3400 1800"><g id="g1" fill="#fff"><path id="path1" d="m 31.484375,450.99731 c -1.92123,0 -3.483002,1.56042 -3.483002,3.48165 v 9.03666 c 0,1.92123 1.561772,3.48168 3.483002,3.48168 h 25.159973 c 1.92123,0 3.485856,-1.56045 3.485856,-3.48168 v -9.03666 c 0,-1.92123 -1.564626,-3.48165 -3.485856,-3.48165 z m 0,1.00001 h 25.159973 c 1.38453,0 2.481865,1.09711 2.481865,2.48164 v 9.03666 c 0,1.38453 -1.097335,2.48168 -2.481865,2.48168 H 31.484375 c -1.38453,0 -2.479002,-1.09715 -2.479002,-2.48168 v -9.03666 c 0,-1.38453 1.094472,-2.48164 2.479002,-2.48164 z" transform="matrix(99.598235,0,0,100,-2688.8846,-44999.729)"/></g><path id="path1-0" d="m 444.8306,198.58878 h 2508.8421 c 138.0593,0 247.4808,109.98806 247.4808,248.79071 v 905.94811 c 0,138.8027 -109.4215,248.7947 -247.4808,248.7947 H 444.8306 c -138.05932,0 -247.19519,-109.992 -247.19519,-248.7947 V 447.37949 c 0,-138.80265 109.13587,-248.79071 247.19519,-248.79071 z" style="fill:#fff;stroke-width:1.00185;fill-opacity:.80000001"/></svg>