<svg xmlns="http://www.w3.org/2000/svg" xmlns:svg="http://www.w3.org/2000/svg" id="svg1" width="2600" height="1800" version="1.1" viewBox="0 0 2600 1800"><g id="g1" fill="#fff"><path id="path1" d="m 31.484375,450.99731 c -1.92123,0 -3.483002,1.56042 -3.483002,3.48165 v 9.03666 c 0,1.92123 1.561772,3.48168 3.483002,3.48168 h 17.127854 c 1.92123,0 3.485856,-1.56045 3.485856,-3.48168 v -9.03666 c 0,-1.92123 -1.564626,-3.48165 -3.485856,-3.48165 z m 0,1.00001 h 17.127854 c 1.38453,0 2.481865,1.09711 2.481865,2.48164 v 9.03666 c 0,1.38453 -1.097335,2.48168 -2.481865,2.48168 H 31.484375 c -1.38453,0 -2.479002,-1.09715 -2.479002,-2.48168 v -9.03666 c 0,-1.38453 1.094472,-2.48164 2.479002,-2.48164 z" transform="matrix(99.598235,0,0,100,-2688.8846,-44999.729)"/></g><path id="path1-0" d="M 445.17907,197.88168 H 2153.8246 c 138.1184,0 247.5866,109.98807 247.5866,248.79071 v 905.94811 c 0,138.8027 -109.4682,248.7947 -247.5866,248.7947 H 445.17907 c -138.11841,0 -247.30099,-109.992 -247.30099,-248.7947 V 446.67239 c 0,-138.80264 109.18258,-248.79071 247.30099,-248.79071 z" style="fill:#fff;stroke-width:1.00206;fill-opacity:.80000001"/></svg>