<svg xmlns="http://www.w3.org/2000/svg" xmlns:svg="http://www.w3.org/2000/svg" id="svg1" width="1800" height="1800" version="1.1" viewBox="0 0 1800 1800"><g id="g1" fill="#fff"><path id="path1" d="m 31.484375,450.99731 c -1.92123,0 -3.483002,1.56042 -3.483002,3.48165 v 9.03666 c 0,1.92123 1.561772,3.48168 3.483002,3.48168 h 9.095609 c 1.92123,0 3.485856,-1.56045 3.485856,-3.48168 v -9.03666 c 0,-1.92123 -1.564626,-3.48165 -3.485856,-3.48165 z m 0,1.00001 h 9.095609 c 1.38453,0 2.481865,1.09711 2.481865,2.48164 v 9.03666 c 0,1.38453 -1.097335,2.48168 -2.481865,2.48168 h -9.095609 c -1.38453,0 -2.479002,-1.09715 -2.479002,-2.48168 v -9.03666 c 0,-1.38453 1.094472,-2.48164 2.479002,-2.48164 z" transform="matrix(99.598235,0,0,100,-2688.8846,-44999.729)"/></g><path style="color:#000;fill:#fff;stroke-width:3.21564;stroke-linecap:round;stroke-linejoin:round;-inkscape-stroke:none" id="path2-1" d="m 879.41846,602.96175 a 78.941779,81.883008 0 0 0 -35.3845,21.1851 L 423.05843,1060.8127 a 78.933886,81.874821 0 0 0 3e-5,115.7883 78.933886,81.874821 0 0 0 111.62985,0 L 899.84886,797.83031 1265.017,1176.6033 a 78.933886,81.874821 0 0 0 111.6299,0 78.933886,81.874821 0 0 0 0,-115.7883 L 955.66366,624.14695 a 78.941779,81.883008 0 0 0 -76.2451,-21.18511 z"/></svg>