<svg xmlns="http://www.w3.org/2000/svg" width="1700" height="1700" viewBox="0 0 1700 1700"><g fill="#fff"><path d="m327.49805 368.03711a.50005.50005 0 0 0 -.34571.14648l-7 7a.50005.50005 0 0 0 0 .70703l7 7a.50005.50005 0 0 0 .70704 0l7.03124-7a.50005.50005 0 0 0 0-.70703l-7.03124-7a.50005.50005 0 0 0 -.36133-.14648zm.008 1.20703 6.32226 6.29297-6.32226 6.29297-6.29297-6.29297zm0 4.79297c-.8225 0-1.5.6775-1.5 1.5s.6775 1.5 1.5 1.5 1.5-.6775 1.5-1.5-.6775-1.5-1.5-1.5zm0 1c.28206 0 .5.21794.5.5s-.21794.5-.5.5-.5-.21794-.5-.5.21794-.5.5-.5z" transform="matrix(100 0 0 100 -31902.148 -36703.703)"/></g></svg>