<svg xmlns="http://www.w3.org/2000/svg" width="1600" height="1600" viewBox="0 0 1600 1600"><g fill="#fff"><path d="m6.5 242a.50005.50005 0 0 0 -.5.5v5a.50005.50005 0 0 0 .5.5h1.5v7.5a.50005.50005 0 0 0 .5.5h9a.50005.50005 0 0 0 .5-.5v-7.5h1.5a.50005.50005 0 0 0 .5-.5v-5a.50005.50005 0 0 0 -.5-.5h-4a.50005.50005 0 0 0 -.5.5v.5c0 .71532-.380592 1.37478-1 1.73242-.619409.35765-1.380591.35765-2 0-.619408-.35764-1-1.0171-1-1.73242v-.5a.50005.50005 0 0 0 -.5-.5zm.5 1h3c0 1.07096.57257 2.06216 1.5 2.59766.927429.53549 2.072571.53549 3 0 .92743-.5355 1.5-1.5267 1.5-2.59766h3v4h-1.5a.50005.50005 0 0 0 -.5.5v7.5h-8v-7.5a.50005.50005 0 0 0 -.5-.5h-1.5z" transform="matrix(100 0 0 100 -500 -24100)"/></g></svg>