<svg xmlns="http://www.w3.org/2000/svg" width="1600" height="1600" viewBox="0 0 1600 1600"><g fill="#fff"><g><path d="m292.5 305-9.00781.008a.50005.50005 0 0 0 -.5.50781l.0391 2.49219 1-.0156-.0312-1.98438 8-.008-.006 8.01172-2 .0195.01 1 2.49414-.0234a.50005.50005 0 0 0 .49414-.5l.00763-9.00784a.50005.50005 0 0 0 -.5-.5z" opacity=".5" transform="matrix(100 0 0 100 -27800 -30400)"/><path d="m279 309v2h2v-2zm2 2v2h2v-2zm2 0h2v-2h-2zm2 0v2h2v-2zm2 0h2v-2h-2zm0 2v2h2v-2zm0 2h-2v2h2zm0 2v2h2v-2zm-2 0h-2v2h2zm-2 0v-2h-2v2zm-2 0h-2v2h2zm0-2v-2h-2v2zm2 0h2v-2h-2z" transform="matrix(100 0 0 100 -27800 -30400)"/></g></g></svg>