<svg xmlns="http://www.w3.org/2000/svg" width="1600" height="1600" viewBox="0 0 1600 1600"><g fill="#fff"><g><path d="m1404.4688 576.96289a1.50015 1.50015 0 0 0 -.1036.01c-4.9348.53258-8.8525 4.44095-9.3925 9.375a1.5001977 1.5001977 0 1 0 2.9824.32812c.3887-3.55095 3.1789-6.33741 6.7304-6.7207a1.50015 1.50015 0 0 0 -.2167-2.99219z" transform="matrix(100 0 0 100 -139102.755 -57300.514)"/><path d="m1405.498 573.99805c-7.4498 0-13.5 6.0501-13.5 13.5a.50004997.50004997 0 1 0 1 0c0-6.90946 5.5906-12.5 12.5-12.5a.50004997.50004997 0 1 0 0-1z" opacity=".6" transform="matrix(100 0 0 100 -139102.755 -57300.514)"/></g></g></svg>