<svg xmlns="http://www.w3.org/2000/svg" width="1600" height="1600" viewBox="0 0 1600 1600"><g fill="#fff"><g><path d="m279.5 288c-.27613.00003-.49997.22387-.5.5v2c.00003.27613.22387.49997.5.5h.71484l2.78516 4.64062v1.85938c.00003.27613.22387.49997.5.5h2c.27613-.00003.49997-.22387.5-.5v-1.85938l2.78516-4.64062h.71484c.27613-.00003.49997-.22387.5-.5v-2c-.00003-.27613-.22387-.49997-.5-.5h-2c-.27613.00003-.49997.22387-.5.5v.5h-5v-.5c-.00003-.27613-.22387-.49997-.5-.5zm.5 1h1v1h-1zm8 0h1v1h-1zm-6 1h5v.5c.00003.27613.22387.49997.5.5h.11523l-2.40039 4h-1.42968l-2.40039-4h.11523c.27613-.00003.49997-.22387.5-.5zm2 6h1v1h-1z" transform="matrix(100 0 0 100 -27800 -28300)"/><path d="m283.5 284c-.27613.00003-.49997.22387-.5.5v3.5h1v-3h8v10h-3.5c-.67616-.01-.67616 1.00956 0 1h4c.27613-.00003.49997-.22387.5-.5v-11c-.00003-.27613-.22387-.49997-.5-.5z" opacity=".5" transform="matrix(100 0 0 100 -27800 -28300)"/></g></g></svg>