<svg xmlns="http://www.w3.org/2000/svg" width="1600" height="1600" viewBox="0 0 1600 1600"><g fill="#fff"><g><path d="m225.5 286a.50005.50005 0 0 0 -.5.5v6.5h-6.5a.50005.50005 0 0 0 -.5.5l-.008 4.00586a.50005.50005 0 0 0 .50195.50195l11.00605-.00781a.50005.50005 0 0 0 .5-.5v-11a.50005.50005 0 0 0 -.5-.5zm.5 1h3v10l-10.00781.008.006-3.00781h6.50181a.50005.50005 0 0 0 .5-.5z" transform="matrix(100 0 0 100 -21500 -28300.391)"/><path d="m222.5 284a.50005.50005 0 0 1 .5.5v6a.50005.50005 0 0 1 -.5.5h-6a.50005.50005 0 0 1 -.5-.5v-6a.50005.50005 0 0 1 .5-.5zm-.5 1h-5v5h5z" opacity=".5" transform="matrix(100 0 0 100 -21500 -28300.391)"/></g></g></svg>