<svg xmlns="http://www.w3.org/2000/svg" width="1600" height="1600" viewBox="0 0 1600 1600"><g fill="#fff"><g><path fill-rule="evenodd" d="m447.5 263a.50005.50005 0 0 0 -.5.5v2a.50005.50005 0 0 0 .5.5h.5v8h-.5a.50005.50005 0 0 0 -.5.5v2a.50005.50005 0 0 0 .5.5h2a.50005.50005 0 0 0 .5-.5v-.5h8v.5a.50005.50005 0 0 0 .5.5h2a.50005.50005 0 0 0 .5-.5v-2a.50005.50005 0 0 0 -.5-.5h-.5v-8h.5a.50005.50005 0 0 0 .5-.5v-2a.50005.50005 0 0 0 -.5-.5h-2a.50005.50005 0 0 0 -.5.5v.5h-8v-.5a.50005.50005 0 0 0 -.5-.5zm.5 1h1v1h-1zm11 0h1v1h-1zm-9 1h8v.5a.50005.50005 0 0 0 .5.5h.5v8h-.5a.50005.50005 0 0 0 -.5.5v.5h-8v-.5a.50005.50005 0 0 0 -.5-.5h-.5v-8h.5a.50005.50005 0 0 0 .5-.5zm-2 10h1v1h-1zm11 0h1v1h-1z" opacity=".6" transform="matrix(100 0 0 100 -44600 -24100) translate(0 -21)"/><path d="m451.5 246a.50005.50005 0 0 0 -.5.5v5a.50005.50005 0 0 0 .5.5h5a.50005.50005 0 0 0 .5-.5v-5a.50005.50005 0 0 0 -.5-.5zm.5 1h4v4h-4z" transform="matrix(100 0 0 100 -44600 -24100)"/></g></g></svg>