<svg xmlns="http://www.w3.org/2000/svg" width="1600" height="1500" viewBox="0 0 1600 1500"><g fill="#fff"><g><path d="m52.0071 410.99995v1l9.4929.00005c.676161.01.676161-1.00956 0-1zm-3.5071 5.00005c-.676161-.01-.676161 1.00956 0 1l5.5071-.00005v-1zm10.5071-.00005v1l2.4929.00005c.676161.01.676161-1.00956 0-1zm-10.5071 5.00005c-.676161-.01-.676161 1.00956 0 1l9.5071-.00005v-1z" opacity=".594" transform="matrix(100 0 0 100 -17300 -47300) translate(126 64.0001)"/><path d="m175.5 474c-.8225 0-1.5.6775-1.5 1.5s.6775 1.5 1.5 1.5 1.5-.6775 1.5-1.5-.6775-1.5-1.5-1.5zm0 1c.28206 0 .5.21794.5.5s-.21794.5-.5.5-.5-.21794-.5-.5.21794-.5.5-.5zm7 4c-.8225 0-1.5.6775-1.5 1.5s.6775 1.5 1.5 1.5 1.5-.6775 1.5-1.5-.6775-1.5-1.5-1.5zm0 1c.28206 0 .5.21794.5.5s-.21794.5-.5.5-.5-.21794-.5-.5.21794-.5.5-.5zm4 4c-.8225 0-1.5.6775-1.5 1.5s.6775 1.5 1.5 1.5 1.5-.6775 1.5-1.5-.6775-1.5-1.5-1.5zm0 1c.28206 0 .5.21794.5.5s-.21794.5-.5.5-.5-.21794-.5-.5.21794-.5.5-.5z" transform="matrix(100 0 0 100 -17300 -47300)"/></g></g></svg>