<svg xmlns="http://www.w3.org/2000/svg" width="1600" height="1600" viewBox="0 0 1600 1600"><g fill="#fff"><g><path fill-rule="evenodd" d="m74.492188 262.99219a.50005.50005 0 0 0 -.09961.0117l-4.90039.004a.50005.50005 0 0 0 -.5.5v5 5a.50005.50005 0 1 0 1 0v-4.50789h4.507812a.50005.50005 0 0 0 .5-.5v-4.49805l4.5-.00195a.50005.50005 0 1 0 0-1l-4.892578.004a.50005.50005 0 0 0 -.115234-.0117zm-.492188 1.01172v3.99609h-4.007812v-3.99414z" opacity=".5" transform="matrix(100 0 0 100 -23599.607 -28300) translate(168 21)"/><path d="m250.48438 284a.50005.50005 0 0 0 -.3379.14648l-13.00781 13.00782a.50005.50005 0 0 0 .35352.85351l13.00781-.00781a.50005.50005 0 0 0 .5-.5v-13a.50005.50005 0 0 0 -.51562-.5zm-.48438 1.70703v11.29297l-11.30078.008z" transform="matrix(100 0 0 100 -23599.607 -28300)"/></g></g></svg>