<svg xmlns="http://www.w3.org/2000/svg" width="1600" height="1600" viewBox="0 0 1600 1600"><g fill="#fff"><g><path d="m495.5 305a.50005.50005 0 0 0 -.5.5v1.5h-3.5a.50005.50005 0 0 0 -.5.5v3.5h-1.5a.50005.50005 0 0 0 -.5.5v7a.50005.50005 0 1 0 1 0v-6.5h1.5a.50005.50005 0 0 0 .5-.5v-3.5h3.5a.50005.50005 0 0 0 .5-.5v-1.5h6.5a.50005.50005 0 1 0 0-1z" opacity=".5" transform="matrix(100 0 0 100 -48800.354 -30400.354)"/><path d="m502.5 308c-5.79307 0-10.5 4.70693-10.5 10.5a.50004997.50004997 0 1 0 1 0c0-5.25263 4.24737-9.5 9.5-9.5a.50004997.50004997 0 1 0 0-1z" transform="matrix(100 0 0 100 -48800.354 -30400.354)"/></g></g></svg>