<svg xmlns="http://www.w3.org/2000/svg" width="1600" height="1600" viewBox="0 0 1600 1600"><g fill="#fff"><g><path d="m300.5 326a.50005.50005 0 0 0 -.5.5v13a.50005.50005 0 0 0 .5.5h13a.50005.50005 0 0 0 .5-.5v-13a.50005.50005 0 0 0 -.5-.5zm.5 1h12v12h-12z" opacity=".6" transform="matrix(100 0 0 100 -29900 -32500)"/><path d="m307.49219 326.99219a.50005.50005 0 0 0 -.49219.50781v5.5h-5.5a.50005.50005 0 1 0 0 1h5.5v2h-5.5a.50005.50005 0 1 0 0 1h5.5v1.5a.50005.50005 0 1 0 1 0v-1.5h2v1.5a.50005.50005 0 1 0 1 0v-1.5h1.5a.50005.50005 0 1 0 0-1h-1.5v-2h1.5a.50005.50005 0 1 0 0-1h-1.5v-5.5a.50005.50005 0 1 0 -1 0v5.5h-2v-5.5a.50005.50005 0 0 0 -.50781-.50781zm.50781 7.00781h2v2h-2z" transform="matrix(100 0 0 100 -29900 -32500)"/></g></g></svg>