<svg xmlns="http://www.w3.org/2000/svg" width="1600" height="1600" viewBox="0 0 1600 1600"><g fill="#fff"><g><g opacity=".6"><path d="m300.5 375a.50005.50005 0 0 0 -.5.5v3a.50005.50005 0 0 0 .5.5h10a.50005.50005 0 0 0 .5-.5v-3a.50005.50005 0 0 0 -.5-.5zm.5 1h9v2h-9z" opacity="1" transform="matrix(100 0 0 100 -8900 -17800) matrix(1 0 0 -1 -210 568)"/><path d="m304.5 378a.50005.50005 0 0 0 -.5.5v3a.50005.50005 0 0 0 .5.5h9a.50005.50005 0 0 0 .5-.5v-3a.50005.50005 0 0 0 -.5-.5zm.5 1h8v2h-8z" opacity="1" transform="matrix(100 0 0 100 -8900 -17800) matrix(1 0 0 -1 -210 568)"/></g><path fill-rule="evenodd" d="m93.5 179c-.412872-.00072-.648693.47092-.400391.80078l3 4c.2.26732.600782.26732.800782 0l3-4c.248299-.32986.012481-.8015-.400391-.80078z" transform="matrix(100 0 0 100 -8900 -17800)"/></g></g></svg>