<svg xmlns="http://www.w3.org/2000/svg" width="1600" height="1200" viewBox="0 0 1600 1200"><g fill="#fff"><g opacity=".99"><path d="m115.5 331c-.82235 0-1.5.67765-1.5 1.5v4c0 .82235.67765 1.5 1.5 1.5h5c.82235 0 1.5-.67765 1.5-1.5v-4c0-.82235-.67765-1.5-1.5-1.5zm0 5h5a.50005.50005 0 1 1 0 1h-5a.50005.50005 0 1 1 0-1z" opacity="1" transform="matrix(100 0 0 100 -113101.03499999997 -61399.997) translate(1021 287)"/><path d="m746.49219-91.007812a.50005.50005 0 0 0 -.49219.507812v3a.50005.50005 0 1 0 1 0v-3a.50005.50005 0 0 0 -.50781-.507812zm0 5a.50005.50005 0 0 0 -.49219.507812v3a.50005.50005 0 1 0 1 0v-3a.50005.50005 0 0 0 -.50781-.507812zm0 5a.50005.50005 0 0 0 -.49219.507812v3a.50005.50005 0 1 0 1 0v-3a.50005.50005 0 0 0 -.50781-.507812z" opacity="1" transform="matrix(100 0 0 100 -113101.03499999997 -61399.997) matrix(0 1 -1 0 1055.01 -131)"/></g></g></svg>