<svg xmlns="http://www.w3.org/2000/svg" width="1300" height="1600" viewBox="0 0 1300 1600"><g fill="#fff"><g opacity=".99"><path d="m746.49219-91.007812a.50005.50005 0 0 0 -.49219.507812v3a.50005.50005 0 1 0 1 0v-3a.50005.50005 0 0 0 -.50781-.507812zm0 5a.50005.50005 0 0 0 -.49219.507812v3a.50005.50005 0 1 0 1 0v-3a.50005.50005 0 0 0 -.50781-.507812zm0 5a.50005.50005 0 0 0 -.49219.507812v3a.50005.50005 0 1 0 1 0v-3a.50005.50005 0 0 0 -.50781-.507812z" opacity="1" transform="matrix(100 0 0 100 -115400.005 -61199.962) translate(419 704)"/><path d="m134.5 330c-.8224 0-1.5.67765-1.5 1.5v4c0 .82235.6776 1.5 1.5 1.5h5c.8224 0 1.5-.67765 1.5-1.5v-4c0-.82235-.6776-1.5-1.5-1.5zm0 5h5a.50005.50005 0 1 1 0 1h-5a.50005.50005 0 1 1 0-1z" opacity="1" transform="matrix(100 0 0 100 -115400.005 -61199.962) translate(1022 287)"/></g></g></svg>