<svg xmlns="http://www.w3.org/2000/svg" width="1600" height="1600" viewBox="0 0 1600 1600"><g fill="#fff"><g><path d="m468.50781 535.99219a.50005.50005 0 0 0 -.5.5v13a.50005.50005 0 0 0 .5.5h13a.50005.50005 0 0 0 .5-.5v-13a.50005.50005 0 0 0 -.5-.5zm.5 1h12v5.00586l-1-.006v2l1 .006v2.00195h-1.00586l.006-2.00781h-2l-.006 2.00781h-2l.006-2.00781h-2l-.006 2.00781h-2l.006-2.00781h-2l-.006 2.00781h-.99414v-2.00391l1-.006v-2l-1 .006zm3 7h2v-2h-2zm4 0h2v-2h-2z" transform="matrix(100 0 0 -100 -46700.781 55099.21899999999)"/><path d="m470.00781 539.99219v2h2v-2zm4 0v2h2v-2zm4 0v2h2v-2z" opacity=".8" transform="matrix(100 0 0 -100 -46700.781 55099.21899999999)"/></g></g></svg>