<svg xmlns="http://www.w3.org/2000/svg" width="1600" height="1600" viewBox="0 0 1600 1600"><g fill="#fff"><g fill-rule="evenodd"><path d="m451.5 536a.50005.50005 0 0 0 -.5.5v9a.50005.50005 0 0 0 .5.5h9a.50005.50005 0 0 0 .5-.5v-9a.50005.50005 0 0 0 -.5-.5zm.5 1h8v8h-8z" transform="matrix(100 0 0 100 -44599.997 -53499.99)"/><path d="m449.49219 537.99219a.50005.50005 0 0 0 -.49219.50781v9a.50005.50005 0 0 0 .5.5h9a.50005.50005 0 1 0 0-1h-8.5v-8.5a.50005.50005 0 0 0 -.50781-.50781zm-2 2a.50005.50005 0 0 0 -.49219.50781v9a.50005.50005 0 0 0 .5.5h9a.50005.50005 0 1 0 0-1h-8.5v-8.5a.50005.50005 0 0 0 -.50781-.50781z" opacity=".6" transform="matrix(100 0 0 100 -44599.997 -53499.99)"/><path d="m460.48438 536c-.12717.004-.248.0564-.3379.14648l-9 9c-.31479.315-.0918.85335.35352.85352h9c.27613-.00003.49997-.22387.5-.5v-9c.00011-.28235-.23341-.50879-.51562-.5z" transform="matrix(100 0 0 100 -44599.997 -53499.99)"/></g></g></svg>