<svg xmlns="http://www.w3.org/2000/svg" width="1600" height="1600" viewBox="0 0 1600 1600"><g fill="#fff"><g><path d="m202.98828 114.98828c-.55228.008-.99388.46139-.98633 1.01367v8c-.0191 1.35232 2.01913 1.35232 2 0v-8c.008-.56299-.45068-1.02136-1.01367-1.01367z" transform="matrix(0 100 -100 0 12999.4093 -19499.7493)"/><path d="m-564.5 609c-.5954-.006-.70014.84767-.12109.98633l-.28321-.0723 1.91992 7.70703c.0555.22241.25515.37858.48438.37894h11c.27461-.00002.49783-.22149.5-.49609l.01-.99805c.00022-.0476-.006-.0949-.0195-.14063l-2.00585-7.00195c-.0613-.21559-.25857-.36405-.4827-.36328l-2.49599-.0137.002 1 2.11903.0157 1.88086 6.56836-.002.42969h-10.11328l-1.74414-7 3.85953-.0138v-1z" opacity=".6" transform="matrix(0 100 -100 0 12999.4093 -19499.7493) translate(760.995 -489)"/></g></g></svg>