<svg xmlns="http://www.w3.org/2000/svg" width="1600" height="1600" viewBox="0 0 1600 1600"><g fill="#fff"><g><path d="m181.98438 115.98633a1.0001 1.0001 0 0 0 -.98438 1.01367v4.83203a1.0001 1.0001 0 0 0 .28906.88477 1.0001 1.0001 0 0 0 .006.006 1.0001 1.0001 0 0 0 .0137.0137 1.0001 1.0001 0 0 0 .84944.2635h4.8418a1.0001 1.0001 0 1 0 0-2h-4v-4a1.0001 1.0001 0 0 0 -1.01562-1.01367z" transform="matrix(100 0 0 100 -17300.312 -11499.46)"/><path d="m-563.5 607a.50005.50005 0 0 0 -.5.5v9a.50005.50005 0 0 0 .5.5h9a.50005.50005 0 0 0 .5-.5l.006-5.50781h-1l-.006 5.00781h-8v-8h5.00391v-1z" opacity=".6" transform="matrix(100 0 0 100 -17300.312 -11499.46) matrix(0 -1 -1 0 790.992 -433.997)"/></g></g></svg>