<svg xmlns="http://www.w3.org/2000/svg" width="1600" height="1600" viewBox="0 0 1600 1600"><g fill="#fff"><g><path d="m468.4999 598.99994a.50005.50005 0 0 0 -.5.5v3.5h1v-3h3v-1zm9.5 0v1h3v3h1v-3.5a.50005.50005 0 0 0 -.5-.5zm-10 10v3.5a.50005.50005 0 0 0 .5.5h3.5v-1h-3v-3zm13 0v3h-3v1h3.5a.50005.50005 0 0 0 .5-.5v-3.5z" transform="matrix(100 0 0 100 -46699.99 -59799.994)"/><path d="m471.4999 601.99994a.50005.50005 0 0 0 -.5.5v1.5h1v-1h1v-1zm2.5 0v1h2v-1zm3 0v1h1v1h1v-1.5a.50005.50005 0 0 0 -.5-.5zm-6 3v2h1v-2zm7 0v2h1v-2zm-7 3v1.5a.50005.50005 0 0 0 .5.5h1.5v-1h-1v-1zm7 0v1h-1v1h1.5a.50005.50005 0 0 0 .5-.5v-1.5zm-4 1v1h2v-1z" opacity=".65" transform="matrix(100 0 0 100 -46699.99 -59799.994)"/></g></g></svg>