<svg xmlns="http://www.w3.org/2000/svg" id="svg4" width="1600" height="1500" viewBox="0 0 1600 1500"><g fill="#fff" transform="matrix(100 0 0 100 28300.723 -145099.36)"><path id="path2" d="m-272.5 1452c-.8225 0-1.5.6775-1.5 1.5s.6775 1.5 1.5 1.5 1.5-.6775 1.5-1.5-.6775-1.5-1.5-1.5zm-5 5c-.8225 0-1.5.6775-1.5 1.5s.6775 1.5 1.5 1.5 1.5-.6775 1.5-1.5-.6775-1.5-1.5-1.5zm3 5c-.8225 0-1.5.6775-1.5 1.5s.6775 1.5 1.5 1.5 1.5-.6775 1.5-1.5-.6775-1.5-1.5-1.5z"/><path id="path3" d="m-268.5 1463c.6573.01.6573.9907 0 1h-3.5v-1zm-8.50781 0v1h-4.5c-.6573-.01-.6573-.9907 0-1zm-4.5-10c-.6573.01-.6573.9907 0 1h6.5v-1zm11.50781 0v1h1.5c.6573-.01.6573-.9907 0-1zm-11.50781 5c-.6573.01-.6573.9907 0 1h1.5v-1zm6.50781 0v1h6.5c.6573-.01.6573-.9907 0-1z" opacity=".7"/></g></svg>