<svg xmlns="http://www.w3.org/2000/svg" width="1600" height="1500" viewBox="0 0 1600 1500"><g fill="#fff"><g><path d="m1455.5 512c-.2761.00003-.5.22387-.5.5v2c0 .27613.2239.49997.5.5h11c.2761-.00003.5-.22387.5-.5v-2c0-.27613-.2239-.49997-.5-.5zm.5 4v6.5c0 .27613.2239.49997.5.5h9c.2761-.00003.5-.22387.5-.5v-6.5zm4 1h2c1.3523-.0191 1.3523 2.01913 0 2h-2c-1.3523.0191-1.3523-2.01913 0-2z" transform="matrix(-100 0 0 100 147000.00499999998 -51100)"/><path d="m1468 514v.5c0 .62337-.4468 1.06807-1 1.28906v.21094 1h1.5c.2761-.00003.5-.22387.5-.5v-2c0-.27613-.2239-.49997-.5-.5zm-1 4v4.5c0 .8167-.6835 1.49991-1.5 1.5h-7.5v.5c0 .27613.2239.49997.5.5h9c.2761-.00003.5-.22387.5-.5v-6.5z" transform="matrix(-100 0 0 100 147000.00499999998 -51100)"/></g></g></svg>