<svg xmlns="http://www.w3.org/2000/svg" width="1600" height="1600" viewBox="0 0 1600 1600"><g fill="#fff"><g><path d="m71.893099 283.6795c1.650931 0 3.000001 1.34907 3.000001 3s-1.34907 3-3.000001 3c-1.65093 0-3-1.34907-3-3s1.34907-3 3-3z" transform="matrix(94.937409 0 0 100.59849 -6441.0006 -28432.589)"/><path d="m80.620438 287.72696c1.65093 0 3 1.34907 3 3s-1.34907 3-3 3-3-1.34907-3-3 1.34907-3 3-3z" transform="matrix(94.937409 0 0 100.59849 -6441.0006 -28432.589)"/><path d="m73.284414 291.52146c1.650931 0 3.000001 1.34907 3.000001 3s-1.34907 3-3.000001 3c-1.65093 0-3-1.34907-3-3s1.34907-3 3-3z" transform="matrix(94.937409 0 0 100.59849 -6441.0006 -28432.589)"/></g></g></svg>