<svg xmlns="http://www.w3.org/2000/svg" width="1600" height="1600" viewBox="0 0 1600 1600"><g fill="#fff"><g><path fill-rule="evenodd" d="m415 710h16v16h-16z" opacity="0" transform="matrix(100 0 0 100 43100.00000000001 -71000) scale(-1 1)"/><path d="m-416.49609 713.99609a.50005.50005 0 0 0 -.31055.10938c-.21339.16596-.41872.33348-.61524.50195-4.0339 3.45843-4.51787 6.50897-4.57812 9.88281a.50009544.50009544 0 1 0 1 .0195c.059-3.3038.37586-5.83955 4.22852-9.14258.1842-.15793.37703-.31626.57812-.47266a.50005.50005 0 0 0 -.30273-.89844z" opacity=".6" transform="matrix(100 0 0 100 43100.00000000001 -71000)"/><path fill-rule="evenodd" d="m-427.5 716c-.27613.00003-.49997.22387-.5.5v3c.00003.27613.22387.49997.5.5h3c.27613-.00003.49997-.22387.5-.5v-3c-.00003-.27613-.22387-.49997-.5-.5zm-2 5c-.27613.00003-.49997.22387-.5.5v3c.00003.27613.22387.49997.5.5h3c.27613-.00003.49997-.22387.5-.5v-3c-.00003-.27613-.22387-.49997-.5-.5zm5-10c-.27613.00003-.49997.22387-.5.5v3c.00003.27613.22387.49997.5.5h3c.27613-.00003.49997-.22387.5-.5v-3c-.00003-.27613-.22387-.49997-.5-.5z" transform="matrix(100 0 0 100 43100.00000000001 -71000)"/></g></g></svg>