<svg xmlns="http://www.w3.org/2000/svg" width="1600" height="1600" viewBox="0 0 1600 1600"><g fill="#fff"><g><path d="m543.50781 181.99023a1.50015 1.50015 0 0 0 -.67773.16797c-3.41741 1.7087-5.83009 5.05846-5.83008 9.3418a1.50015 1.50015 0 1 0 3 0c-.00001-3.21666 1.58731-5.3669 4.16992-6.6582a1.50015 1.50015 0 0 0 -.66211-2.85157z" transform="matrix(100 0 0 100 -53001.526 -17801.149)"/><path d="m536.49609 179.00195a.50005.50005 0 0 0 -.35351.12891c-4.08383 3.59037-5.14329 7.80863-5.13086 13.36328a.50005.50005 0 1 0 1-.002c-.0122-5.43221.92902-9.21403 4.79101-12.60938a.50005.50005 0 0 0 -.30664-.88086z" opacity=".6" transform="matrix(100 0 0 100 -53001.526 -17801.149)"/></g></g></svg>