<svg xmlns="http://www.w3.org/2000/svg" width="1600" height="1600" viewBox="0 0 1600 1600"><g fill="#fff"><g><path fill-rule="evenodd" d="m396 731h16v16h-16z" opacity="0" transform="matrix(100 0 0 100 41200.00000000001 -73100) scale(-1 1)"/><path d="m-408.50391 736.99414a.50005.50005 0 0 0 -.43554.26563c-1.5311 2.80698-2.01417 5.0457-2.02149 8.22461a.50005.50005 0 1 0 1 .004c.007-3.0834.43147-5.05503 1.90039-7.74805a.50005.50005 0 0 0 -.44336-.74609zm6.99805 2a.50005.50005 0 0 0 -.37891.18555c-1.274 1.5288-2.11523 2.98665-2.11523 6.32031a.50005.50005 0 1 0 1 0c0-3.18014.65877-4.20849 1.88477-5.67969a.50005.50005 0 0 0 -.39063-.82617z" opacity=".6" transform="matrix(100 0 0 100 41200.00000000001 -73100)"/><path fill-rule="evenodd" d="m-407.5 732c-.27613.00003-.49997.22387-.5.5v3c.00003.27613.22387.49997.5.5h3c.27613-.00003.49997-.22387.5-.5v-3c-.00003-.27613-.22387-.49997-.5-.5zm7 2c-.27613.00003-.49997.22387-.5.5v3c.00003.27613.22387.49997.5.5h3c.27613-.00003.49997-.22387.5-.5v-3c-.00003-.27613-.22387-.49997-.5-.5z" transform="matrix(100 0 0 100 41200.00000000001 -73100)"/></g></g></svg>