<svg xmlns="http://www.w3.org/2000/svg" width="1600" height="1600" viewBox="0 0 1600 1600"><g fill="#fff"><g><path d="m48.492188 137a.50005.50005 0 0 0 -.492188.50781v3a.50005.50005 0 1 0 1 0v-3a.50005.50005 0 0 0 -.507812-.50781zm0 5a.50005.50005 0 0 0 -.492188.50781v3a.50005.50005 0 1 0 1 0v-3a.50005.50005 0 0 0 -.507812-.50781zm0 5a.50005.50005 0 0 0 -.492188.50781v3a.50005.50005 0 1 0 1 0v-3a.50005.50005 0 0 0 -.507812-.50781z" transform="matrix(-100 0 0 100 6299.9842 -13600.744)"/><path d="m51.515625 137c-.27612.00003-.49996.22387-.5.5v.5h-1.015625v1h1.515625 1 2.484375v-.5c0-.25267-.149085-.49526-.484375-.5h-1.5v-.5c-.00003-.27613-.22387-.49997-.5-.5zm3.484375 2 .01563.5v.5h-5.01563v9h6.515625c.27613-.00003.49997-.22387.5-.5v-.35938l-2.580078-2.58007a1.50015 1.50015 0 1 1 2.121094-2.1211l.458984.45899v-4.39844c-.00003-.27613-.22387-.49997-.5-.5z" opacity=".5" transform="matrix(-100 0 0 100 6299.9842 -13600.744)"/><path d="m55.490234 143.99414a.50005.50005 0 0 0 -.349609.85938l5.146484 5.14648h-2.792968a.50005.50005 0 1 0 0 1h3.939453a.50005.50005 0 0 0 .560547-.57031v-3.92969a.50005.50005 0 1 0 -1 0v2.79297l-5.146485-5.14649a.50005.50005 0 0 0 -.357422-.15234z" transform="matrix(-100 0 0 100 6299.9842 -13600.744)"/></g></g></svg>