<svg xmlns="http://www.w3.org/2000/svg" width="1600" height="1600" viewBox="0 0 1600 1600"><g fill="#fff"><g><g><path d="m115.59493 291.64794c1.65093 0 3 1.34907 3 3s-1.34907 3-3 3-3-1.34907-3-3 1.34907-3 3-3zm0 1c-1.11049 0-2 .88951-2 2s.88951 2 2 2 2-.88951 2-2-.88951-2-2-2z" opacity=".4" transform="matrix(95.125202 0 0 100.99549 -18401.621 -9450.078) translate(83.289453 -189.18163)"/><path d="m122.93095 287.85344c1.65093 0 3 1.34907 3 3s-1.34907 3-3 3-3-1.34907-3-3 1.34907-3 3-3zm0 1c-1.11049 0-2 .88951-2 2s.88951 2 2 2 2-.88951 2-2-.88951-2-2-2z" opacity=".4" transform="matrix(95.125202 0 0 100.99549 -18401.621 -9450.078) translate(83.289453 -189.18163)"/></g><path d="m197.49219 94.596621c1.65093 0 3 1.34907 3 3s-1.34907 2.999999-3 2.999999-3-1.349069-3-2.999999 1.34907-3 3-3z" transform="matrix(95.125202 0 0 100.99549 -18401.621 -9450.078)"/></g></g></svg>