<svg xmlns="http://www.w3.org/2000/svg" width="1600" height="1600" viewBox="0 0 1600 1600"><g fill="#fff"><g><path d="m-359.5 1474a.50005.50005 0 1 0 0 1h7a.50005.50005 0 1 0 0-1zm0 5a.50005.50005 0 1 0 0 1h7a.50005.50005 0 1 0 0-1zm0 5a.50005.50005 0 1 0 0 1h7a.50005.50005 0 1 0 0-1z" opacity=".7" transform="matrix(100 0 0 100 36699.644 -147150.003)"/><path d="m-364.5 1473c-.8225 0-1.5.6775-1.5 1.5s.6775 1.5 1.5 1.5 1.5-.6775 1.5-1.5-.6775-1.5-1.5-1.5zm0 5c-.8225 0-1.5.6775-1.5 1.5s.6775 1.5 1.5 1.5 1.5-.6775 1.5-1.5-.6775-1.5-1.5-1.5zm0 5c-.8225 0-1.5.6775-1.5 1.5s.6775 1.5 1.5 1.5 1.5-.6775 1.5-1.5-.6775-1.5-1.5-1.5z" transform="matrix(100 0 0 100 36699.644 -147150.003)"/></g></g></svg>