<svg xmlns="http://www.w3.org/2000/svg" width="1700" height="1200" viewBox="0 0 1700 1200"><g fill="#fff"><path fill-rule="evenodd" d="m124.49003 224c.27994-.01.50979.22.50977.5v7c.001.4307-.5065.6613-.83008.377l-4-3.5c-.22872-.1993-.22872-.5547 0-.754l4-3.5c.0889-.078.20238-.1211.32031-.123zm-9.96289-1c.13302.01.25746.068.34571.168l4 4.5c.16816.1894.16816.4746 0 .664l-4 4.5c-.19883.2227-.54727.2227-.7461 0l-4-4.5c-.16816-.1894-.16816-.4746 0-.664l4-4.5c.10092-.114.24831-.1759.40039-.168z" transform="matrix(100 0 0 100 -10900.0216 -22199.918)"/></g></svg>