<svg xmlns="http://www.w3.org/2000/svg" width="1600" height="1600" viewBox="0 0 1600 1600"><g fill="#fff"><g fill-rule="evenodd" opacity=".7"><path d="m412 179c-3.86007 0-7 3.13993-7 7s3.13993 7 7 7 7-3.13993 7-7-3.13993-7-7-7zm0 1c3.31963 0 6 2.68037 6 6s-2.68037 6-6 6-6-2.68037-6-6 2.68037-6 6-6z" opacity=".3" transform="matrix(100 0 0 100 -40400 -17800)"/><path d="m412 184c-1.09865 0-2 .90135-2 2s.90135 2 2 2 2-.90135 2-2-.90135-2-2-2z" opacity="1" transform="matrix(100 0 0 100 -40400 -17800)"/></g></g></svg>