<svg xmlns="http://www.w3.org/2000/svg" xmlns:svg="http://www.w3.org/2000/svg" id="svg2" width="1200" height="1200" version="1.1" viewBox="0 0 1200 1200"><g id="g1"><g id="blender_autokey" fill="#fff" transform="matrix(1 0 0 .99407813 0 5.93843)"><path style="stroke-width:100.256" id="path1" d="m 600.63047,198.8002 c 222.07287,0 401.21043,179.13738 401.21043,401.21025 0,222.07286 -179.13756,401.21105 -401.21043,401.21105 -222.07287,0 -401.5834,-176.33948 -401.5834,-398.41235 0,-222.07287 179.51053,-404.00895 401.5834,-404.00895 z" transform="matrix(1,0,0,1.0059571,0,-5.9738061)"/></g><g id="blender_text" fill="#fff" opacity=".8"><path id="path1-1" stroke-width="100" d="m 599.88703,100.19229 c -275.55,0 -499.81389,224.2639 -499.81389,499.8139 0,275.55 224.26389,499.81391 499.81389,499.81391 275.55,0 499.81387,-224.45002 499.81387,-500.00002 0,-275.55 -224.26387,-499.62779 -499.81387,-499.62779 z m 0,99.62779 c 221.506,0 400.18607,178.68011 400.18607,400.18611 0,221.506 -178.68007,400.18611 -400.18607,400.18611 -221.506,0 -400.55831,-175.88855 -400.55831,-397.39455 0,-221.506 179.05231,-402.97767 400.55831,-402.97767 z"/></g></g></svg>