<svg xmlns="http://www.w3.org/2000/svg" width="1600" height="1600" viewBox="0 0 1600 1600"><g fill="#fff"><g><path d="m489.00391 329.99805v2h1v-1h1v-1zm0 4v2h1v-2zm0 4v2h2v-1h-1v-1zm9 0v1h-1v1h2v-2zm-5 1v1h2v-1z" transform="matrix(100 0 0 100 -48800.39999999999 -32499.219)"/><path d="m493.49609 325.98633c-.27689.00003-.50105.22506-.5.50195l.008 4.00586c.00003.27613.22387.49997.5.5h4.5v4.50195c.00003.27613.22387.49997.5.5h4c.27613-.00003.49997-.22387.5-.5v-9c-.00003-.27613-.22387-.49997-.5-.5z" transform="matrix(100 0 0 100 -48800.39999999999 -32499.219)"/></g></g></svg>