<svg xmlns="http://www.w3.org/2000/svg" id="svg4" width="1600" height="1600" viewBox="0 0 1600 1600"><g fill="#fff"><path id="path1" d="m302.5 382a.50005.50005 0 0 1 -.5-.5v-2.5h-1.5a.50005.50005 0 0 1 -.5-.5v-3a.50005.50005 0 0 1 .5-.5h11a.50005.50005 0 0 1 .5.5v2.5h1.5a.50005.50005 0 0 1 .5.5v3a.50005.50005 0 0 1 -.5.5zm.5-1h10v-2h-1.5-8.5zm-2-3h1.5 8.5v-2h-10z" transform="matrix(100 0 0 -100 -29900 38300)"/><path id="path3" d="m8.5-4a.50005.50005 0 0 0 -.5.5v3a.50005.50005 0 0 0 .5.5h11a.50005.50005 0 0 0 .5-.5v-3a.50005.50005 0 0 0 -.5-.5zm.5 1h10v2h-10z" transform="matrix(100 0 0 100 -500 1500)"/></g></svg>