<svg xmlns="http://www.w3.org/2000/svg" width="1600" height="1600" viewBox="0 0 1600 1600"><g fill="#fff"><g opacity=".99"><path d="m1258.4766-286a.50005.50005 0 0 0 -.4102.25195l-4 7a.50005.50005 0 0 0 .4336.74805h8a.50005.50005 0 0 0 .4336-.74805l-4-7a.50005.50005 0 0 0 -.457-.25195zm.023 1.50781 3.1387 5.49219h-6.2774z" opacity="1" transform="matrix(-100 0 0 100 126400.005 29299.979)"/><path d="m1253.5-289c-.8225 0-1.5.67749-1.5 1.5s.6775 1.5 1.5 1.5 1.5-.67749 1.5-1.5-.6775-1.5-1.5-1.5z" opacity="1" transform="matrix(-100 0 0 100 126400.005 29299.979)"/><path fill-rule="evenodd" d="m27.5 11a.50005.50005 0 0 0 -.5.5v10.851562l1-1.75v-8.601562h12v12h-3.099609c.122248.339531.117057.686553.0039 1h3.595709a.50005.50005 0 0 0 .5-.5v-13a.50005.50005 0 0 0 -.5-.5z" opacity="1" transform="matrix(-100 0 0 100 126400.005 29299.979) matrix(-1 0 0 1 1290 -302.99979)"/></g></g></svg>