<svg xmlns="http://www.w3.org/2000/svg" width="1600" height="1600" viewBox="0 0 1600 1600"><g fill="#fff"><g><path d="m283.49219 330.00781c-.1326.00003-.25976.0527-.35352.14649l-2 2c-.0938.0938-.14645.22091-.14648.35351v5c.00003.27613.22387.49997.5.5h5c.1326-.00003.25975-.0527.35351-.14648l2-2c.0938-.0938.14646-.22092.14649-.35352v-5c-.00003-.27613-.22387-.49997-.5-.5z" transform="matrix(-100 0 0 -100 29399.599 34100.39100000001)"/><path d="m284.25 326a.50005.50005 0 0 0 -.35352.14648l-4.75 4.75a.50005.50005 0 0 0 -.14648.35352l-.008 8.25586a.50005.50005 0 0 0 .50195.50195l8.25605-.00781a.50005.50005 0 0 0 .35352-.14648l4.75-4.75a.50005.50005 0 0 0 .14648-.35352l-.008-8.24414a.50005.50005 0 0 0 -.49805-.49805zm.20703 1 7.53711.006.006 7.53711-4.45703 4.45703-7.55078.008.008-7.55078z" opacity=".6" transform="matrix(-100 0 0 -100 29399.599 34100.39100000001)"/></g></g></svg>