<svg xmlns="http://www.w3.org/2000/svg" width="1600" height="1500" viewBox="0 0 1600 1500"><g fill="#fff"><g><path d="m103 78.000008h1v1h-1zm0-3h1v1h-1zm-8 3h1v1h-1zm0 3h1v1h-1zm0-6h1v1h-1z" transform="matrix(100 0 0 100 -8900.7813 -7300)"/><path d="m98.515625 74c-.276131.000028-.499972.223869-.5.5v6c.000028.276131.223869.499972.5.5h2.984375c.27613-.000028.49997-.223869.5-.5v-6c-.00003-.276131-.22387-.499972-.5-.5zm.5 1h1.984375v2h-1.984375zm0 3h1.984375v2h-1.984375zm-8.5-4c-.276131.000028-.499972.223869-.5.5v12c.000028.276131.223869.499972.5.5h2.984375c.276131-.000028.499972-.223869.5-.5v-12c-.000028-.276131-.223869-.499972-.5-.5zm.5 1h1.984375v2h-1.984375zm0 3h1.984375v2h-1.984375zm0 3h1.984375v2h-1.984375zm0 3h1.984375v2h-1.984375z" transform="matrix(100 0 0 100 -8900.7813 -7300)"/></g></g></svg>