<svg xmlns="http://www.w3.org/2000/svg" width="1400" height="1400" viewBox="0 0 1400 1400"><g fill="#fff"><g fill-rule="evenodd"><path d="m49.46875 159a.50005.50005 0 0 0 -.5.5v11a.50005.50005 0 0 0 .5.5h11a.50005.50005 0 0 0 .5-.5v-11a.50005.50005 0 0 0 -.5-.5zm.5 1h10v10h-10z" opacity=".6" transform="matrix(100 0 0 100 -4796.875 -15800)"/><path d="m53.5 163c-.276131.00003-.499972.22387-.5.5v3c.000028.27613.223869.49997.5.5h3c.276131-.00003.499972-.22387.5-.5v-3c-.000028-.27613-.223869-.49997-.5-.5z" transform="matrix(100 0 0 100 -4796.875 -15800)"/></g></g></svg>