<svg xmlns="http://www.w3.org/2000/svg" width="1600" height="1600" viewBox="0 0 1600 1600"><g fill="#fff"><g><path d="m384.5 158c-.27613.00003-.49997.22387-.5.5v3c.00003.27613.22387.49997.5.5h13c.27613-.00003.49997-.22387.5-.5v-3c-.00003-.27613-.22387-.49997-.5-.5zm.5 1h12v2h-12zm-.5 9c-.27613.00003-.49997.22387-.5.5v3c.00003.27613.22387.49997.5.5h13c.27613-.00003.49997-.22387.5-.5v-3c-.00003-.27613-.22387-.49997-.5-.5zm.5 1h12v2h-12z" opacity=".6" transform="matrix(100 0 0 100 -38300 -15700)"/><path d="m393.00001 165a2.000005 2.000005 0 0 1 -2.00001 2.00001 2.000005 2.000005 0 0 1 -2.00001-2.00001 2.000005 2.000005 0 0 1 2.00001-2.00001 2.000005 2.000005 0 0 1 2.00001 2.00001z" transform="matrix(100 0 0 100 -38300 -15700)"/></g></g></svg>