<svg xmlns="http://www.w3.org/2000/svg" width="1600" height="1600" viewBox="0 0 1600 1600"><g fill="#fff"><path d="m220.5 536a.50005.50005 0 0 0 -.5.5v9.64062a1.8365096 2.6222708 64.987834 0 0 -1.98242.0723 1.8365096 2.6222708 64.987834 0 0 -1.9707 2.68555 1.8365096 2.6222708 64.987834 0 0 2.93554.88867 1.8365096 2.6222708 64.987834 0 0 2.00977-2.18945.50005.50005 0 0 0 .00781-.09769v-.02539-9.47461h8v7.14062a1.8365125 2.6222911 64.988434 0 0 -1.98242.0723 1.8365125 2.6222911 64.988434 0 0 -1.9707 2.68555 1.8365125 2.6222911 64.988434 0 0 2.93554.88867 1.8365125 2.6222911 64.988434 0 0 2.00977-2.18945.50005.50005 0 0 0 .00781-.09769v-10a.50005.50005 0 0 0 -.5-.5z" opacity=".99" transform="matrix(100 0 0 100 -21499.994 -53500.019)"/></g></svg>