<svg xmlns="http://www.w3.org/2000/svg" width="1600" height="1600" viewBox="0 0 1600 1600"><g fill="#fff"><g><path d="m250.05859 306.01172c-2.15963 0-4.15811 1.13935-5.24023 2.99219-1.08212 1.85283-1.08212 4.1413 0 5.99414s3.0806 2.99218 5.24023 2.99218l.43164.01c.28003.005.50992-.22015.50977-.50023l-.004-10.98438c-.00002-.27461-.22149-.49783-.49609-.5l-.4375-.004c-.001-.00001-.003-.00001-.004 0z" transform="matrix(100 0 0 100 -23599.902 -30399.414)"/><path d="m6.4980469 367.99414a.50005.50005 0 0 0 -.5.5v2a.50005.50005 0 0 0 .5.5h.5019531v8h-.5019531a.50005.50005 0 0 0 -.5.5v2a.50005.50005 0 0 0 .5.5h2a.50005.50005 0 0 0 .5-.5v-.49414h5.0019531c.67616.01.67616-1.00956 0-1h-5.0019531v-.50586a.50005.50005 0 0 0 -.5-.5h-.4980469v-8h.4980469a.50005.50005 0 0 0 .5-.5v-.49414h5.0019531c.67616.01.67616-1.00956 0-1h-5.0019531v-.50586a.50005.50005 0 0 0 -.5-.5zm.5 1h1v1h-1zm0 11h1v1h-1z" opacity=".6" transform="matrix(100 0 0 100 -23599.902 -30399.414) translate(231 -63)"/></g></g></svg>