<svg xmlns="http://www.w3.org/2000/svg" width="1600" height="1600" viewBox="0 0 1600 1600"><g fill="#fff"><g><path d="m405 32v8h14v-8zm2.50781 2h8.98438c.67616-.0096.67616 1.009563 0 1h-8.98438c-.67616.0096-.67616-1.009563 0-1zm0 3h8.98438c.67616-.0096.67616 1.009563 0 1h-8.98438c-.67616.0096-.67616-1.009563 0-1z" transform="matrix(100 0 0 100 -40400 -3100.002)"/><path d="m407.50781 42a.50005.50005 0 1 0 0 1h8.98438a.50005.50005 0 1 0 0-1zm0 3a.50005.50005 0 1 0 0 1h8.98438a.50005.50005 0 1 0 0-1z" transform="matrix(100 0 0 100 -40400 -3100.002)"/></g></g></svg>