<svg xmlns="http://www.w3.org/2000/svg" width="1600" height="1600" viewBox="0 0 1600 1600"><g fill="#fff"><path fill-rule="evenodd" d="m475.00071 508.00091c-3.8601 0-7-3.1399-7-7s3.1399-7 7-7 7 3.1399 7 7-3.1399 7-7 7zm2.96094-1.99804a1.0001 1.0001 0 0 0 1.04102-.98633 1.0001 1.0001 0 0 0 -.20899-.62305l-2.57617-3.43555 1.60742-2.41015a1.0001 1.0001 0 1 0 -1.66406-1.10938l-1.91211 2.86914a1.0001 1.0001 0 0 0 -.26367.68164 1.0001 1.0001 0 0 0 .004.0801 1.0001 1.0001 0 0 0 .30664.66016l2.89844 3.86328a1.0001 1.0001 0 0 0 .76758.41016z" opacity=".99" transform="matrix(100 0 0 -100 -46700.071 50900.09100000001)"/></g></svg>