<svg xmlns="http://www.w3.org/2000/svg" width="1600" height="1600" viewBox="0 0 1600 1600"><g fill="#fff"><g><g><path d="m346 286.00391c0-1.09977-.90081-2.00196-2-2.00196s-2 .90219-2 2.00196c0 1.09976.90081 2.0039 2 2.0039s2-.90414 2-2.0039zm-1 0c0 .56041-.44233 1.0039-1 1.0039s-1-.44349-1-1.0039.44233-1.00196 1-1.00196 1 .44155 1 1.00196z" transform="matrix(100 0 0 100 -29900 -51400.60249999999) matrix(1 0 0 -1 -42 813.007)"/><path d="m356 296.00391c0-1.09734-.90199-1.9961-2-1.9961s-2 .89876-2 1.9961c0 1.09733.90199 1.99609 2 1.99609s2-.89876 2-1.99609z" transform="matrix(100 0 0 100 -29900 -51400.60249999999) matrix(1 0 0 -1 -42 813.007)"/></g><path d="m306.49609 516.00391a.50005.50005 0 1 0 0 1h2a.50005.50005 0 1 0 0-1zm-2.00976.99414a.50005.50005 0 0 0 -.34375.15234l-1 1a.50005.50005 0 1 0 .70703.70703l1-1a.50005.50005 0 0 0 -.36328-.85937zm-1.00195 3a.50005.50005 0 0 0 -.34766.85937l1 1a.50005.50005 0 1 0 .70703-.70703l-1-1a.50005.50005 0 0 0 -.35937-.15234zm3.01171 2.00586a.50005.50005 0 1 0 0 1h1a.50005.50005 0 1 0 0-1zm2.9961.99414a.50005.50005 0 0 0 -.34961.85937l1 1a.50005.50005 0 1 0 .70703-.70703l-1-1a.50005.50005 0 0 0 -.35742-.15234zm.99414 3a.50005.50005 0 0 0 -.34375.15234l-1 1a.50005.50005 0 1 0 .70703.70703l1-1a.50005.50005 0 0 0 -.36328-.85937zm-4.9961 1.00586a.50005.50005 0 1 0 0 1h2a.50005.50005 0 1 0 0-1z" transform="matrix(100 0 0 100 -29900 -51400.60249999999)"/></g></g></svg>