<svg xmlns="http://www.w3.org/2000/svg" width="1400" height="1400" viewBox="0 0 1400 1400"><g fill="#fff"><path d="m217.55469 306.0625c-.67616-.01-.67616 1.00956 0 1h1.50781v3.97266c0 2.19985 1.29782 4.00769 3.5 4.01172h1 .002c2.20199-.005 3.498-1.81187 3.498-4.01172v-3.97266h1.49219c.67616.01.67616-1.00956 0-1h-4c-.67616-.01-.67616 1.00956 0 1h1.50781v3.97266c0 1.65832-.83799 3.00828-2.50195 3.01172h-.99805c-1.66382-.003-2.5-1.3534-2.5-3.01172v-3.97266h1.49219c.67616.01.67616-1.00956 0-1zm1 11c-.67616-.01-.67616 1.00956 0 1h8.96875c.67616.01.67616-1.00956 0-1z" transform="matrix(100 0 0 100 -21605.469 -30506.25)"/></g></svg>