<svg xmlns="http://www.w3.org/2000/svg" width="1500" height="1600" viewBox="0 0 1500 1600"><g fill="#fff"><g><path fill-rule="evenodd" d="m27.544922-565.04492c-.276131.00003-.499972.22387-.5.5v2c.000028.27613.223869.49997.5.5h8c.276131-.00003.499972-.22387.5-.5v-2c-.000028-.27613-.223869-.49997-.5-.5z" transform="matrix(0 100 100 0 57104.829 -2604.492)"/><path d="m28.544922-570.04492c-.276131.00003-.499972.22387-.5.5v3.5h1v-3h5v3h1v-3h5v5h-3v1h3.5c.276131-.00003.499972-.22387.5-.5v-6c-.000028-.27613-.223869-.49997-.5-.5zm-.5 9 .0049 3.49327c.000028.27613.223869.49997.5.5h6c.275371-.00003.498899-.22268.5-.49805l.0019-3.5-1-.002v3h-5l-.0068-2.99132z" opacity=".55" transform="matrix(0 100 100 0 57104.829 -2604.492)"/></g></g></svg>