<svg xmlns="http://www.w3.org/2000/svg" width="1600" height="1600" viewBox="0 0 1600 1600"><g fill="#fff"><g><path d="m259.5 138a.50005.50005 0 0 0 -.5.5v11.00195a.50005.50005 0 0 0 .5.5l4-.002a.50005.50005 0 0 0 .5-.5v-11a.50005.50005 0 0 0 -.5-.5zm.5 1h3v10l-3 .002z" opacity=".6" transform="matrix(100 0 0 100 -6803.7054 57200.97700000001) translate(-189.963 -708.01)"/><path fill-rule="evenodd" d="m77.537109-571.00977c-.276131.00003-.499972.22387-.5.5v13c.000028.27613.223869.49997.5.5h5c.276131-.00003.499972-.22387.5-.5v-13c-.000028-.27613-.223869-.49997-.5-.5z" transform="matrix(100 0 0 100 -6803.7054 57200.97700000001)"/></g></g></svg>