<svg xmlns="http://www.w3.org/2000/svg" width="1600" height="1600" viewBox="0 0 1600 1600"><g fill="#fff"><g><path d="m363.49414 141.99414a.50005.50005 0 0 0 -.34766.85938l7.15235 7.15234h-2.79883a.50005.50005 0 1 0 0 1h4a.50005.50005 0 0 0 .006 0 .50005.50005 0 0 0 .0937-.0117.50005.50005 0 0 0 .0488-.0117.50005.50005 0 0 0 .3515-.54301v-3.93359a.50005.50005 0 1 0 -1 0v2.78711l-7.14648-7.14649a.50005.50005 0 0 0 -.35938-.15234z" transform="matrix(-100 0 0 100 37800.06000000001 -13600.293)"/><path d="m368.49414 137a.50005.50005 0 0 0 -.0937.01.50005.50005 0 0 0 -.0488.0117.50005.50005 0 0 0 -.35164.54275v3.93555a.50005.50005 0 1 0 1 0v-2.78711l7.14648 7.14649a.50005.50005 0 1 0 .70704-.70704l-7.15235-7.15234h2.79883a.50005.50005 0 1 0 0-1h-4a.50005.50005 0 0 0 -.006 0z" transform="matrix(-100 0 0 100 37800.06000000001 -13600.293)"/></g></g></svg>