<svg xmlns="http://www.w3.org/2000/svg" width="1600" height="1600" viewBox="0 0 1600 1600"><g fill="#fff"><g><path d="m155.50195 139.99414a.50005.50005 0 0 0 -.36133.85352c1.23267 1.27471 2.63438 3.15234 5.35938 3.15234s4.12681-1.87774 5.35938-3.15234a.50005.50005 0 1 0 -.71876-.69532c-1.30585 1.3504-2.36562 2.84766-4.64062 2.84766s-3.33487-1.49737-4.64062-2.84766a.50005.50005 0 0 0 -.35743-.1582z" opacity=".6" transform="matrix(100 0 0 100 -15100.212 -13601.61)"/><path d="m152.50195 143a.50005.50005 0 0 0 -.46093.69727l3 7a.50005.50005 0 1 0 .91796-.39454l-2.50781-5.85156 5.85156 2.50781a.50005.50005 0 1 0 .39454-.91796l-7-3a.50005.50005 0 0 0 -.19532-.04102z" opacity=".6" transform="matrix(100 0 0 100 -15100.212 -13601.61)"/></g></g></svg>