<svg xmlns="http://www.w3.org/2000/svg" width="1600" height="1600" viewBox="0 0 1600 1600"><g fill="#fff"><g><path d="m155.50195 121.99414a.50005.50005 0 0 0 -.36133.85352c1.23267 1.27471 2.63438 3.15234 5.35938 3.15234s4.12681-1.87774 5.35938-3.15234a.50005.50005 0 1 0 -.71876-.69532c-1.30585 1.3504-2.36562 2.84766-4.64062 2.84766s-3.33487-1.49737-4.64062-2.84766a.50005.50005 0 0 0 -.35743-.1582z" opacity=".6" transform="matrix(100 0 0 100 -13100.185 -13597.834) translate(-20 18)"/><path d="m132.50195 143c-.35971-.001-.6028.36671-.46093.69727l3 7c.18151.42185.78799.39645.93359-.0391l.91992-2.76367 2.76367-.91992c.43555-.1456.46095-.75208.0391-.93359l-7-3c-.0617-.0266-.12814-.0406-.19535-.041z" transform="matrix(100 0 0 100 -13100.185 -13597.834)"/></g></g></svg>