<svg xmlns="http://www.w3.org/2000/svg" width="1600" height="1600" viewBox="0 0 1600 1600"><g fill="#fff"><g><path d="m548 653c-.54532 0-1 .45468-1 1v9c0 .54532.45468 1 1 1h10c.54532 0 1-.45468 1-1v-1h-1v1h-10v-4-5z" opacity=".6" transform="matrix(100 0 0 100 -54599.99999999999 -64900)"/><path d="m550 650c-.54532 0-1 .45468-1 1v9c0 .54532.45468 1 1 1h10c.54532 0 1-.45468 1-1v-9c0-.54532-.45468-1-1-1zm0 1h2v2h-2zm0 3h10v6h-10z" transform="matrix(100 0 0 100 -54599.99999999999 -64900)"/></g></g></svg>