<svg xmlns="http://www.w3.org/2000/svg" width="1600" height="1600" viewBox="0 0 1600 1600"><g fill="#fff"><g><path d="m279.5 32a.50005.50005 0 0 0 -.5.5v13a.50005.50005 0 0 0 .5.5h13a.50005.50005 0 0 0 .5-.5v-13a.50005.50005 0 0 0 -.5-.5zm.5 1h12v12h-12z" opacity=".6" transform="matrix(100 0 0 100 -27800 -3100)"/><path d="m282.56641 35a.50005.50005 0 1 0 -.008 1l4.9375.03125a.50005.50005 0 1 0 .008-1zm0 2a.50005.50005 0 1 0 -.008 1l3.9375.03125a.50005.50005 0 1 0 .008-1zm.004 2a.50006099.50006099 0 1 0 -.0156 1l1.9375.03125a.50006099.50006099 0 1 0 .0156-1zm-.006 2a.50005.50005 0 1 0 -.004 1l5.9375.03125a.50005.50005 0 1 0 .004-1z" transform="matrix(100 0 0 100 -27800 -3100)"/></g></g></svg>