<svg xmlns="http://www.w3.org/2000/svg" width="1600" height="1600" viewBox="0 0 1600 1600"><g fill="#fff"><g><path d="m258.5 32a.50005.50005 0 0 0 -.5.5v13a.50005.50005 0 0 0 .5.5h13a.50005.50005 0 0 0 .5-.5v-4.5h-1v4h-12v-12h12v1h1v-1.5a.50005.50005 0 0 0 -.5-.5z" opacity=".6" transform="matrix(100 0 0 100 -25700 -3100)"/><path d="m261.5 35c-.67616-.0096-.67616 1.009563 0 1h10.5v-1zm0 2c-.67616-.0096-.67616 1.009563 0 1h10.5v-1zm0 2c-.67616-.0096-.67616 1.009563 0 1h10.5v-1z" transform="matrix(100 0 0 100 -25700 -3100)"/></g></g></svg>