<svg xmlns="http://www.w3.org/2000/svg" width="1600" height="1600" viewBox="0 0 1600 1600"><g fill="#fff"><g><path d="m153.5 119a.50005.50005 0 0 0 -.5.5v10a.50005.50005 0 0 0 .5.5h10a.50005.50005 0 0 0 .5-.5v-10a.50005.50005 0 0 0 -.5-.5zm.5 1h9v9h-9z" transform="matrix(100 0 0 100 -15200 -11500)"/><path d="m157 121v2h1v-2zm0 3v1.5c.00003.27613.22387.49997.5.5h1.5v-1h-1v-1zm3 1v1h2v-1z" opacity=".75" transform="matrix(100 0 0 100 -15200 -11500)"/><path d="m157.5 116a.50005.50005 0 0 0 -.5.5v1.5h1v-1h8v8h-1v1h1.5a.50005.50005 0 0 0 .5-.5v-9a.50005.50005 0 0 0 -.5-.5z" opacity=".75" transform="matrix(100 0 0 100 -15200 -11500)"/></g></g></svg>